<?xml version="1.0" encoding="utf-8"?>
<!-- Generator: Adobe Illustrator 15.1.0, SVG Export Plug-In . SVG Version: 6.00 Build 0)  -->
<!DOCTYPE svg PUBLIC "-//W3C//DTD SVG 1.1 Basic//EN" "http://www.w3.org/Graphics/SVG/1.1/DTD/svg11-basic.dtd">
<svg version="1.1" baseProfile="basic" id="Layer_1"
	 xmlns="http://www.w3.org/2000/svg" xmlns:xlink="http://www.w3.org/1999/xlink" x="0px" y="0px" width="400px" height="258px"
	 viewBox="0 0 400 258" xml:space="preserve">
<circle fill="#82D3F5" cx="198.039" cy="86.111" r="42.351"/>
<g>
	<rect x="37.291" y="147.701" fill="none" width="325.584" height="76.201"/>
	<path fill="#221B1D" d="M156.238,167.496c0,0.648-0.36,1.513-0.936,2.232c-2.448-1.584-4.753-2.304-7.85-2.304
		c-4.392,0-7.561,1.656-7.561,4.681c0,1.656,0.576,3.023,3.528,5.04l7.777,5.544c3.384,2.809,4.896,5.257,4.896,8.93
		c0,6.336-4.465,9.721-11.81,9.721c-5.544,0-9.072-1.368-9.072-3.096c0-0.793,0.216-1.585,0.863-2.449
		c2.16,1.297,4.465,1.873,7.849,1.873c4.753,0,7.777-1.729,7.777-5.545c0-2.736-1.152-4.824-4.032-6.984l-7.561-5.473
		c-3.961-2.736-4.753-4.969-4.753-7.561c0-5.041,4.465-8.209,11.737-8.209C153.862,163.896,156.238,166.345,156.238,167.496z"/>
	<path fill="#221B1D" d="M165.237,149.135c1.656,0,2.231,1.008,2.231,3.24c-0.071,2.16-0.863,3.385-2.448,3.385
		c-1.439,0-2.231-0.936-2.16-3.313C162.86,150.359,163.652,149.135,165.237,149.135z M167.109,199.684
		c0,0.936-0.072,0.936-4.104,0.936v-34.059c0-1.943,0.936-1.943,4.104-1.943V199.684z"/>
	<path fill="#221B1D" d="M189.861,164.328h8.929c0.145,0.36,0.433,0.937,0.433,1.873c0,1.08-0.576,1.584-1.656,1.584
		s-2.521-0.145-3.889-0.433c2.448,1.585,3.961,4.536,3.961,8.929c0,7.417-3.313,13.25-11.665,13.25
		c-1.585,0-2.953-0.145-4.104-0.504c-1.513,1.224-3.024,3.023-3.024,4.104c0,1.44,4.536,2.232,10.44,2.952
		c5.329,0.72,9.649,2.232,9.649,7.921c0,5.545-4.393,10.801-13.97,10.801c-9.576,0-11.377-3.889-11.377-7.633
		c0-3.527,2.809-6.912,5.904-9.072c-2.952-0.864-4.824-2.088-4.752-3.816c0-1.872,2.088-4.393,4.536-6.337
		c-3.528-2.16-4.536-6.408-4.536-11.017c0-9.001,5.185-13.033,11.881-13.033C187.341,163.896,188.709,164.041,189.861,164.328z
		 M182.805,198.748c-2.592,1.8-5.185,4.896-5.185,7.632c0,2.736,1.225,4.753,7.705,4.753s9.577-3.457,9.577-6.625
		c0-3.96-2.881-4.752-8.065-5.256C185.397,199.107,184.029,198.963,182.805,198.748z M178.845,176.857
		c0,5.257,1.008,9.434,7.416,9.434c5.113,0,7.417-4.682,7.417-10.802c0-5.904-2.664-8.497-7.2-8.497
		C182.301,166.992,178.845,169.945,178.845,176.857z"/>
	<path fill="#221B1D" d="M204.188,166.416c3.313-1.439,7.633-2.52,11.665-2.52c7.777,0,9.865,3.096,9.865,9.865v25.922
		c0,0.936-0.072,0.936-4.032,0.936v-25.777c0-5.186-1.008-7.417-5.977-7.417c-2.088,0-5.4,0.504-7.561,1.656v30.603
		c0,0.936-0.072,0.936-3.961,0.936V166.416z"/>
	<path fill="#221B1D" d="M232.267,165.769c1.44-0.864,6.049-1.872,11.306-1.872c5.76,0,8.641,2.232,8.641,8.713v4.32
		c0,8.209-0.145,16.201-0.36,21.818c-1.656,1.008-4.752,2.592-9.793,2.592c-5.185,0.072-10.369-0.864-10.369-10.729
		c0-10.153,5.329-11.738,10.729-11.738c1.944,0,4.32,0.217,5.904,0.865v-6.337c0-4.681-2.304-5.688-5.688-5.688
		c-4.536,0-8.425,0.936-10.369,1.8c-0.432-0.864-0.576-1.655-0.576-2.304C231.69,166.633,231.907,166.057,232.267,165.769z
		 M243.644,181.971c-4.104,0-7.849,0.863-7.849,8.496c0,6.84,3.169,7.416,6.841,7.416c2.305,0,4.536-0.863,5.328-1.584
		c0.217-3.023,0.36-8.928,0.36-13.609C246.956,182.186,245.012,181.971,243.644,181.971z"/>
	<path fill="#221B1D" d="M263.586,199.684c0,0.936-0.071,0.936-3.96,0.936v-50.98c0-1.943,0.792-1.943,3.96-1.943V199.684z"/>
</g>
<line fill="none" stroke="#221B1D" stroke-width="4" stroke-linecap="round" stroke-linejoin="round" x1="198" y1="111.333" x2="198" y2="82.333"/>
<circle fill="#221B1D" cx="198.1" cy="81.333" r="6.784"/>
<path fill="none" stroke="#221B1D" stroke-width="6" stroke-miterlimit="10" d="M189.083,67.686C184.279,70.187,181,75.21,181,81
	c0,5.793,3.283,10.818,8.09,13.318"/>
<path fill="none" stroke="#221B1D" stroke-width="4" stroke-miterlimit="10" d="M173.191,70c-1.898,3.056-3.025,6.867-3.025,11
	c0,4.288,1.213,8.229,3.242,11.341"/>
<path fill="none" stroke="#221B1D" stroke-width="6" stroke-miterlimit="10" d="M206.893,67.686
	c4.804,2.501,8.083,7.524,8.083,13.314c0,5.793-3.283,10.818-8.09,13.318"/>
<path fill="none" stroke="#221B1D" stroke-width="4" stroke-miterlimit="10" d="M222.784,70c1.898,3.056,3.025,6.867,3.025,11
	c0,4.288-1.213,8.229-3.242,11.341"/>
</svg>
