<?xml version="1.0" encoding="utf-8"?>
<!-- Generator: Adobe Illustrator 18.1.1, SVG Export Plug-In . SVG Version: 6.00 Build 0)  -->
<svg version="1.1" id="Layer_1" xmlns="http://www.w3.org/2000/svg" xmlns:xlink="http://www.w3.org/1999/xlink" x="0px" y="0px"
	 viewBox="-724 358.3 220 250.7" enable-background="new -724 358.3 220 250.7" xml:space="preserve">
<circle fill="#82D3F5" cx="-613" cy="444.4" r="42.4"/>
<g>
	<rect x="-773.7" y="506" fill="none" width="325.6" height="76.2"/>
	<path fill="#221B1D" d="M-654.8,525.8c0,0.6-0.4,1.5-0.9,2.2c-2.4-1.6-4.8-2.3-7.8-2.3c-4.4,0-7.6,1.7-7.6,4.7c0,1.7,0.6,3,3.5,5
		l7.8,5.5c3.4,2.8,4.9,5.3,4.9,8.9c0,6.3-4.5,9.7-11.8,9.7c-5.5,0-9.1-1.4-9.1-3.1c0-0.8,0.2-1.6,0.9-2.4c2.2,1.3,4.5,1.9,7.8,1.9
		c4.8,0,7.8-1.7,7.8-5.5c0-2.7-1.2-4.8-4-7l-7.6-5.5c-4-2.7-4.8-5-4.8-7.6c0-5,4.5-8.2,11.7-8.2
		C-657.1,522.2-654.8,524.7-654.8,525.8z"/>
	<path fill="#221B1D" d="M-645.8,507.4c1.7,0,2.2,1,2.2,3.2c-0.1,2.2-0.9,3.4-2.4,3.4c-1.4,0-2.2-0.9-2.2-3.3
		C-648.1,508.7-647.3,507.4-645.8,507.4z M-643.9,558c0,0.9-0.1,0.9-4.1,0.9v-34.1c0-1.9,0.9-1.9,4.1-1.9V558z"/>
	<path fill="#221B1D" d="M-621.1,522.6h8.9c0.1,0.4,0.4,0.9,0.4,1.9c0,1.1-0.6,1.6-1.7,1.6c-1.1,0-2.5-0.1-3.9-0.4
		c2.4,1.6,4,4.5,4,8.9c0,7.4-3.3,13.2-11.7,13.2c-1.6,0-3-0.1-4.1-0.5c-1.5,1.2-3,3-3,4.1c0,1.4,4.5,2.2,10.4,3
		c5.3,0.7,9.6,2.2,9.6,7.9c0,5.5-4.4,10.8-14,10.8c-9.6,0-11.4-3.9-11.4-7.6c0-3.5,2.8-6.9,5.9-9.1c-3-0.9-4.8-2.1-4.8-3.8
		c0-1.9,2.1-4.4,4.5-6.3c-3.5-2.2-4.5-6.4-4.5-11c0-9,5.2-13,11.9-13C-623.7,522.2-622.3,522.4-621.1,522.6z M-628.2,557.1
		c-2.6,1.8-5.2,4.9-5.2,7.6c0,2.7,1.2,4.8,7.7,4.8c6.5,0,9.6-3.5,9.6-6.6c0-4-2.9-4.8-8.1-5.3C-625.6,557.4-627,557.3-628.2,557.1z
		 M-632.2,535.2c0,5.3,1,9.4,7.4,9.4c5.1,0,7.4-4.7,7.4-10.8c0-5.9-2.7-8.5-7.2-8.5C-628.7,525.3-632.2,528.3-632.2,535.2z"/>
	<path fill="#221B1D" d="M-606.8,524.7c3.3-1.4,7.6-2.5,11.7-2.5c7.8,0,9.9,3.1,9.9,9.9V558c0,0.9-0.1,0.9-4,0.9v-25.8
		c0-5.2-1-7.4-6-7.4c-2.1,0-5.4,0.5-7.6,1.7V558c0,0.9-0.1,0.9-4,0.9L-606.8,524.7L-606.8,524.7z"/>
	<path fill="#221B1D" d="M-578.7,524.1c1.4-0.9,6-1.9,11.3-1.9c5.8,0,8.6,2.2,8.6,8.7v4.3c0,8.2-0.1,16.2-0.4,21.8
		c-1.7,1-4.8,2.6-9.8,2.6c-5.2,0.1-10.4-0.9-10.4-10.7c0-10.2,5.3-11.7,10.7-11.7c1.9,0,4.3,0.2,5.9,0.9v-6.3c0-4.7-2.3-5.7-5.7-5.7
		c-4.5,0-8.4,0.9-10.4,1.8c-0.4-0.9-0.6-1.7-0.6-2.3C-579.3,524.9-579.1,524.4-578.7,524.1z M-567.4,540.3c-4.1,0-7.8,0.9-7.8,8.5
		c0,6.8,3.2,7.4,6.8,7.4c2.3,0,4.5-0.9,5.3-1.6c0.2-3,0.4-8.9,0.4-13.6C-564,540.5-566,540.3-567.4,540.3z"/>
	<path fill="#221B1D" d="M-547.4,558c0,0.9-0.1,0.9-4,0.9v-51c0-1.9,0.8-1.9,4-1.9V558z"/>
</g>
<line fill="none" stroke="#221B1D" stroke-width="4" stroke-linecap="round" stroke-linejoin="round" x1="-613" y1="469.6" x2="-613" y2="440.6"/>
<circle fill="#221B1D" cx="-612.9" cy="439.6" r="6.8"/>
<path fill="none" stroke="#221B1D" stroke-width="6" stroke-miterlimit="10" d="M-621.9,426c-4.8,2.5-8.1,7.5-8.1,13.3
	c0,5.8,3.3,10.8,8.1,13.3"/>
<path fill="none" stroke="#221B1D" stroke-width="4" stroke-miterlimit="10" d="M-637.8,428.3c-1.9,3.1-3,6.9-3,11
	c0,4.3,1.2,8.2,3.2,11.3"/>
<path fill="none" stroke="#221B1D" stroke-width="6" stroke-miterlimit="10" d="M-604.1,426c4.8,2.5,8.1,7.5,8.1,13.3
	c0,5.8-3.3,10.8-8.1,13.3"/>
<path fill="none" stroke="#221B1D" stroke-width="4" stroke-miterlimit="10" d="M-588.2,428.3c1.9,3.1,3,6.9,3,11
	c0,4.3-1.2,8.2-3.2,11.3"/>
</svg>
