<?xml version="1.0" encoding="utf-8"?>
<!-- Generator: Adobe Illustrator 15.1.0, SVG Export Plug-In . SVG Version: 6.00 Build 0)  -->
<!DOCTYPE svg PUBLIC "-//W3C//DTD SVG 1.1 Basic//EN" "http://www.w3.org/Graphics/SVG/1.1/DTD/svg11-basic.dtd">
<svg version="1.1" baseProfile="basic" id="Layer_1"
	 xmlns="http://www.w3.org/2000/svg" xmlns:xlink="http://www.w3.org/1999/xlink" x="0px" y="0px" width="763.891px" height="152px"
	 viewBox="0 0 763.891 152" xml:space="preserve">
<rect x="263.891" y="33" width="221" height="89"/>
<g>
	<rect x="263.557" y="62.466" fill="none" width="220.5" height="38.101"/>
	<path fill="#FFFFFF" d="M321.408,65.132c0,0.468-0.18,0.936-0.359,1.224c-0.288-0.252-1.368-1.116-2.7-1.116
		c-2.52,0-5.22,1.44-5.22,12.311c0,8.242,2.088,9.611,4.284,9.611c1.655,0,3.132-0.864,3.743-1.584c0.18,0.324,0.36,0.791,0.36,1.26
		c0,1.115-1.908,2.483-4.464,2.483c-2.915,0-5.975-0.937-5.975-11.807c0-12.67,3.779-14.182,6.982-14.182
		C320.437,63.333,321.408,64.413,321.408,65.132z"/>
	<path fill="#FFFFFF" d="M328.681,70.567c3.708,0,5.579,1.979,5.579,9.358c0,6.48-2.123,9.359-5.975,9.359
		c-3.492,0-5.615-1.188-5.615-9.322C322.67,73.303,324.938,70.567,328.681,70.567z M328.356,87.558c2.269,0,3.78-2.052,3.78-7.703
		c0-6.228-1.26-7.522-3.528-7.522c-2.304,0-3.815,1.727-3.815,7.774C324.793,86.334,326.089,87.558,328.356,87.558z"/>
	<path fill="#FFFFFF" d="M345.133,74.852c-0.072-1.692-0.396-2.52-2.448-2.52c-1.044,0-2.088,0.215-3.312,0.791v15.334
		c0,0.469-0.107,0.469-1.979,0.469v-17.17c1.728-0.756,3.563-1.188,5.327-1.188s2.844,0.468,3.456,1.296
		c1.296-0.828,3.06-1.296,4.571-1.296c3.563,0,4.031,1.836,4.031,5.22v12.67c0,0.469-0.036,0.469-1.979,0.469V75.679
		c0-2.339-0.36-3.312-2.376-3.312c-1.044,0-2.159,0.217-3.312,0.973v15.117c0,0.217,0,0.324-0.18,0.396h-0.036
		c-0.216,0.072-0.72,0.072-1.764,0.072V74.852z"/>
	<path fill="#FFFFFF" d="M358.705,72.008c1.512-0.937,3.239-1.44,5.184-1.44c3.671,0,5.939,1.692,5.939,7.595
		c0,9.756-3.6,11.123-5.903,11.123c-1.548,0-2.736-0.648-3.24-1.296v7.884c-0.323,0.071-0.72,0.144-1.044,0.144
		c-0.647,0-0.936-0.181-0.936-0.828V72.008z M360.685,85.83c0.648,1.115,1.692,1.655,2.7,1.655c1.476-0.036,4.283-0.864,4.283-8.927
		c0-5.004-1.332-6.227-3.888-6.227c-1.188,0-2.231,0.323-3.096,0.899V85.83z"/>
	<path fill="#FFFFFF" d="M378.18,70.567c3.708,0,5.579,1.979,5.579,9.358c0,6.48-2.123,9.359-5.975,9.359
		c-3.492,0-5.615-1.188-5.615-9.322C372.169,73.303,374.437,70.567,378.18,70.567z M377.855,87.558c2.269,0,3.78-2.052,3.78-7.703
		c0-6.228-1.26-7.522-3.528-7.522c-2.304,0-3.815,1.727-3.815,7.774C374.292,86.334,375.588,87.558,377.855,87.558z"/>
	<path fill="#FFFFFF" d="M386.82,71.828c1.656-0.721,3.815-1.261,5.831-1.261c3.888,0,4.932,1.548,4.932,4.932v12.958
		c0,0.469-0.036,0.469-2.016,0.469V76.039c0-2.592-0.504-3.707-2.987-3.707c-1.044,0-2.7,0.252-3.779,0.827v15.298
		c0,0.469-0.036,0.469-1.98,0.469V71.828z"/>
	<path fill="#FFFFFF" d="M411.623,76.255c0,1.548-0.108,3.132-0.36,4.319c-3.023,0.611-7.019,0.648-8.603,0.648
		c0.036,5.255,1.655,6.119,4.211,6.119c1.62,0,3.204-0.432,4.319-1.225c0.181,0.469,0.252,1.008,0.252,1.404
		c0,0.863-2.268,1.764-4.895,1.764c-3.42,0-5.903-1.152-5.903-8.387c0-9.251,3.455-10.331,6.442-10.331
		C410.219,70.567,411.623,72.691,411.623,76.255z M402.696,79.566c1.439,0,4.823,0,6.839-0.504c0.107-0.863,0.144-1.656,0.144-2.412
		c-0.036-2.879-0.611-4.283-2.771-4.283C405.071,72.367,402.948,73.195,402.696,79.566z"/>
	<path fill="#FFFFFF" d="M414.756,71.828c1.656-0.721,3.815-1.261,5.831-1.261c3.888,0,4.932,1.548,4.932,4.932v12.958
		c0,0.469-0.036,0.469-2.016,0.469V76.039c0-2.592-0.504-3.707-2.987-3.707c-1.044,0-2.7,0.252-3.779,0.827v15.298
		c0,0.469-0.036,0.469-1.98,0.469V71.828z"/>
	<path fill="#FFFFFF" d="M430.848,72.691h-2.664c0-1.584,0.036-1.764,0.468-1.764h2.196V65.24c0-0.792,0.324-0.792,1.979-0.792
		v6.479h4.355c0,1.584-0.036,1.764-0.432,1.764h-3.924v11.051c0,2.123,0.072,3.779,1.656,3.779c1.008,0,1.548-0.216,2.339-0.576
		c0.072,0.288,0.145,0.648,0.145,1.044c0,0.937-1.476,1.296-2.916,1.296c-2.987,0-3.203-2.304-3.203-5.579V72.691z"/>
</g>
<g>
	<rect x="3.558" y="64.466" fill="none" width="220.5" height="38.101"/>
	<path fill="#82D3F5" d="M48.577,66.736c0-1.008,0.072-1.008,2.017-1.008v24.729c0,0.469-0.036,0.469-2.017,0.469V66.736z"/>
	<path fill="#82D3F5" d="M54.553,73.828c1.656-0.721,3.815-1.261,5.831-1.261c3.888,0,4.932,1.548,4.932,4.932v12.958
		c0,0.469-0.036,0.469-2.016,0.469V78.039c0-2.592-0.504-3.707-2.987-3.707c-1.044,0-2.7,0.252-3.779,0.827v15.298
		c0,0.469-0.036,0.469-1.98,0.469V73.828z"/>
	<path fill="#82D3F5" d="M69.061,74.008c1.512-0.937,3.239-1.44,5.184-1.44c3.671,0,5.939,1.692,5.939,7.595
		c0,9.756-3.6,11.123-5.903,11.123c-1.548,0-2.736-0.648-3.24-1.296v7.884c-0.323,0.071-0.72,0.144-1.044,0.144
		c-0.647,0-0.936-0.181-0.936-0.828V74.008z M71.04,87.83c0.648,1.115,1.692,1.655,2.7,1.655c1.476-0.036,4.283-0.864,4.283-8.927
		c0-5.004-1.332-6.227-3.888-6.227c-1.188,0-2.231,0.323-3.096,0.899V87.83z"/>
	<path fill="#82D3F5" d="M94.259,90.025c-1.584,0.828-3.672,1.26-5.472,1.26c-4.211,0-5.291-1.871-5.291-6.443v-11.41
		c0-0.504-0.036-0.504,2.016-0.504v12.166c0,3.348,0.647,4.428,3.455,4.428c0.792,0,2.232-0.18,3.313-0.828V73.432
		c0-0.504,0.071-0.504,1.979-0.504V90.025z"/>
	<path fill="#82D3F5" d="M100.02,74.691h-2.664c0-1.584,0.036-1.764,0.468-1.764h2.196V67.24c0-0.792,0.324-0.792,1.979-0.792v6.479
		h4.355c0,1.584-0.036,1.764-0.432,1.764h-3.924v11.051c0,2.123,0.072,3.779,1.656,3.779c1.008,0,1.548-0.216,2.339-0.576
		c0.072,0.288,0.145,0.648,0.145,1.044c0,0.937-1.476,1.296-2.916,1.296c-2.987,0-3.203-2.304-3.203-5.579V74.691z"/>
	<path fill="#82D3F5" d="M125.218,74.367c0,0.324-0.18,0.756-0.468,1.116c-1.224-0.792-2.375-1.151-3.923-1.151
		c-2.196,0-3.78,0.827-3.78,2.339c0,0.828,0.288,1.513,1.764,2.521l3.888,2.771c1.692,1.403,2.448,2.627,2.448,4.463
		c0,3.168-2.232,4.859-5.903,4.859c-2.771,0-4.535-0.684-4.535-1.548c0-0.396,0.107-0.792,0.432-1.224
		c1.08,0.648,2.231,0.936,3.924,0.936c2.375,0,3.887-0.863,3.887-2.771c0-1.367-0.575-2.412-2.016-3.492l-3.779-2.734
		c-1.979-1.368-2.376-2.484-2.376-3.78c0-2.52,2.232-4.104,5.867-4.104C124.03,72.567,125.218,73.791,125.218,74.367z"/>
	<path fill="#82D3F5" d="M129.72,65.188c0.827,0,1.115,0.504,1.115,1.62c-0.036,1.08-0.432,1.692-1.224,1.692
		c-0.72,0-1.116-0.468-1.08-1.656C128.531,65.8,128.928,65.188,129.72,65.188z M130.655,90.457c0,0.469-0.036,0.469-2.052,0.469
		V73.899c0-0.972,0.468-0.972,2.052-0.972V90.457z"/>
	<path fill="#82D3F5" d="M142.03,72.783h4.463c0.072,0.18,0.216,0.469,0.216,0.936c0,0.541-0.288,0.793-0.827,0.793
		c-0.54,0-1.261-0.072-1.944-0.217c1.224,0.793,1.979,2.268,1.979,4.464c0,3.708-1.655,6.623-5.831,6.623
		c-0.792,0-1.476-0.071-2.052-0.252c-0.756,0.612-1.512,1.512-1.512,2.052c0,0.721,2.268,1.116,5.22,1.477
		c2.663,0.359,4.823,1.115,4.823,3.959c0,2.771-2.196,5.399-6.983,5.399s-5.688-1.944-5.688-3.815c0-1.764,1.404-3.456,2.952-4.535
		c-1.476-0.433-2.412-1.045-2.376-1.908c0-0.936,1.044-2.195,2.268-3.168c-1.764-1.08-2.268-3.203-2.268-5.507
		c0-4.499,2.592-6.516,5.939-6.516C140.771,72.567,141.454,72.64,142.03,72.783z M138.502,89.989
		c-1.296,0.899-2.592,2.448-2.592,3.815c0,1.368,0.612,2.376,3.852,2.376c3.24,0,4.788-1.728,4.788-3.312
		c0-1.98-1.44-2.376-4.032-2.628C139.798,90.17,139.114,90.098,138.502,89.989z M136.522,79.047c0,2.627,0.504,4.715,3.708,4.715
		c2.556,0,3.707-2.34,3.707-5.398c0-2.952-1.332-4.248-3.6-4.248C138.25,74.115,136.522,75.592,136.522,79.047z"/>
	<path fill="#82D3F5" d="M149.194,73.828c1.656-0.721,3.815-1.261,5.831-1.261c3.888,0,4.932,1.548,4.932,4.932v12.958
		c0,0.469-0.036,0.469-2.016,0.469V78.039c0-2.592-0.504-3.707-2.987-3.707c-1.044,0-2.7,0.252-3.779,0.827v15.298
		c0,0.469-0.036,0.469-1.98,0.469V73.828z"/>
	<path fill="#82D3F5" d="M163.234,73.504c0.72-0.433,3.023-0.937,5.651-0.937c2.879,0,4.319,1.116,4.319,4.355v2.16
		c0,4.103-0.072,8.099-0.18,10.906c-0.828,0.504-2.376,1.296-4.896,1.296c-2.592,0.036-5.184-0.432-5.184-5.363
		c0-5.075,2.664-5.867,5.363-5.867c0.972,0,2.16,0.107,2.951,0.432v-3.168c0-2.339-1.151-2.843-2.843-2.843
		c-2.269,0-4.212,0.468-5.184,0.899c-0.216-0.432-0.288-0.828-0.288-1.151C162.946,73.936,163.055,73.647,163.234,73.504z
		 M168.922,81.603c-2.052,0-3.924,0.432-3.924,4.247c0,3.42,1.584,3.708,3.42,3.708c1.151,0,2.268-0.433,2.663-0.792
		c0.108-1.512,0.18-4.463,0.18-6.803C170.577,81.711,169.605,81.603,168.922,81.603z"/>
	<path fill="#82D3F5" d="M178.894,90.457c0,0.469-0.036,0.469-1.979,0.469V65.44c0-0.972,0.396-0.972,1.979-0.972V90.457z"/>
</g>
<g>
	<rect x="536.225" y="64.949" fill="none" width="220.5" height="38.101"/>
	<path fill="#82D3F5" d="M576.888,65.852c4.679,0,6.407,3.167,6.407,12.742c0,9.719-2.052,13.175-6.804,13.175
		c-4.607,0-6.515-2.952-6.515-13.138C569.977,69.271,572.244,65.852,576.888,65.852z M576.563,89.717
		c3.312,0,4.607-2.987,4.607-11.158c0-7.955-1.152-10.691-4.355-10.691c-3.168,0-4.644,2.988-4.644,11.375
		C572.172,86.873,573.359,89.717,576.563,89.717z"/>
	<path fill="#82D3F5" d="M597.515,90.509c-1.584,0.828-3.672,1.26-5.472,1.26c-4.211,0-5.291-1.872-5.291-6.442V73.915
		c0-0.504-0.036-0.504,2.016-0.504v12.167c0,3.347,0.647,4.427,3.455,4.427c0.792,0,2.232-0.181,3.313-0.828V73.915
		c0-0.504,0.071-0.504,1.979-0.504V90.509z"/>
	<path fill="#82D3F5" d="M603.275,75.175h-2.664c0-1.584,0.036-1.764,0.468-1.764h2.196v-5.688c0-0.792,0.324-0.792,1.979-0.792
		v6.479h4.355c0,1.583-0.036,1.764-0.432,1.764h-3.924v11.051c0,2.124,0.072,3.779,1.656,3.779c1.008,0,1.548-0.216,2.339-0.576
		c0.072,0.288,0.145,0.647,0.145,1.044c0,0.936-1.476,1.296-2.916,1.296c-2.987,0-3.203-2.304-3.203-5.579V75.175z"/>
	<path fill="#82D3F5" d="M612.419,74.49c1.512-0.936,3.239-1.439,5.184-1.439c3.671,0,5.939,1.691,5.939,7.596
		c0,9.754-3.6,11.122-5.903,11.122c-1.548,0-2.736-0.647-3.24-1.296v7.883c-0.323,0.072-0.72,0.145-1.044,0.145
		c-0.647,0-0.936-0.18-0.936-0.828V74.49z M614.398,88.313c0.648,1.116,1.692,1.656,2.7,1.656c1.476-0.035,4.283-0.863,4.283-8.927
		c0-5.003-1.332-6.228-3.888-6.228c-1.188,0-2.231,0.324-3.096,0.9V88.313z"/>
	<path fill="#82D3F5" d="M637.617,90.509c-1.584,0.828-3.672,1.26-5.472,1.26c-4.211,0-5.291-1.872-5.291-6.442V73.915
		c0-0.504-0.036-0.504,2.016-0.504v12.167c0,3.347,0.647,4.427,3.455,4.427c0.792,0,2.232-0.181,3.313-0.828V73.915
		c0-0.504,0.071-0.504,1.979-0.504V90.509z"/>
	<path fill="#82D3F5" d="M643.378,75.175h-2.664c0-1.584,0.036-1.764,0.468-1.764h2.196v-5.688c0-0.792,0.324-0.792,1.979-0.792
		v6.479h4.355c0,1.583-0.036,1.764-0.432,1.764h-3.924v11.051c0,2.124,0.072,3.779,1.656,3.779c1.008,0,1.548-0.216,2.339-0.576
		c0.072,0.288,0.145,0.647,0.145,1.044c0,0.936-1.476,1.296-2.916,1.296c-2.987,0-3.203-2.304-3.203-5.579V75.175z"/>
	<path fill="#82D3F5" d="M668.576,74.851c0,0.324-0.18,0.756-0.468,1.116c-1.224-0.792-2.375-1.152-3.923-1.152
		c-2.196,0-3.78,0.828-3.78,2.34c0,0.828,0.288,1.512,1.764,2.52l3.888,2.771c1.692,1.404,2.448,2.628,2.448,4.464
		c0,3.167-2.232,4.859-5.903,4.859c-2.771,0-4.535-0.684-4.535-1.548c0-0.396,0.107-0.792,0.432-1.224
		c1.08,0.647,2.231,0.937,3.924,0.937c2.375,0,3.887-0.865,3.887-2.772c0-1.368-0.575-2.411-2.016-3.491l-3.779-2.736
		c-1.979-1.367-2.376-2.483-2.376-3.779c0-2.52,2.232-4.104,5.867-4.104C667.389,73.051,668.576,74.275,668.576,74.851z"/>
	<path fill="#82D3F5" d="M673.078,65.672c0.827,0,1.115,0.504,1.115,1.62c-0.036,1.08-0.432,1.692-1.224,1.692
		c-0.72,0-1.116-0.468-1.08-1.656C671.89,66.284,672.286,65.672,673.078,65.672z M674.014,90.941c0,0.467-0.036,0.467-2.052,0.467
		V74.383c0-0.972,0.468-0.972,2.052-0.972V90.941z"/>
	<path fill="#82D3F5" d="M685.389,73.268h4.463c0.072,0.18,0.216,0.467,0.216,0.936c0,0.539-0.288,0.791-0.827,0.791
		c-0.54,0-1.261-0.071-1.944-0.215c1.224,0.791,1.979,2.268,1.979,4.463c0,3.707-1.655,6.623-5.831,6.623
		c-0.792,0-1.476-0.072-2.052-0.252c-0.756,0.612-1.512,1.512-1.512,2.052c0,0.72,2.268,1.116,5.22,1.476
		c2.663,0.36,4.823,1.116,4.823,3.96c0,2.771-2.196,5.399-6.983,5.399s-5.688-1.943-5.688-3.816c0-1.764,1.404-3.455,2.952-4.535
		c-1.476-0.432-2.412-1.043-2.376-1.907c0-0.937,1.044-2.196,2.268-3.168c-1.764-1.079-2.268-3.203-2.268-5.507
		c0-4.5,2.592-6.516,5.939-6.516C684.129,73.051,684.813,73.123,685.389,73.268z M681.86,90.473c-1.296,0.9-2.592,2.447-2.592,3.815
		s0.612,2.376,3.852,2.376c3.24,0,4.788-1.729,4.788-3.312c0-1.979-1.44-2.376-4.032-2.628
		C683.156,90.652,682.473,90.58,681.86,90.473z M679.881,79.53c0,2.628,0.504,4.716,3.708,4.716c2.556,0,3.707-2.34,3.707-5.4
		c0-2.951-1.332-4.247-3.6-4.247C681.608,74.599,679.881,76.074,679.881,79.53z"/>
	<path fill="#82D3F5" d="M692.553,74.311c1.656-0.72,3.815-1.26,5.831-1.26c3.888,0,4.932,1.548,4.932,4.932v12.959
		c0,0.467-0.036,0.467-2.016,0.467V78.522c0-2.592-0.504-3.708-2.987-3.708c-1.044,0-2.7,0.252-3.779,0.828v15.299
		c0,0.467-0.036,0.467-1.98,0.467V74.311z"/>
	<path fill="#82D3F5" d="M706.593,73.986c0.72-0.432,3.023-0.936,5.651-0.936c2.879,0,4.319,1.116,4.319,4.355v2.16
		c0,4.104-0.072,8.099-0.18,10.906c-0.828,0.504-2.376,1.296-4.896,1.296c-2.592,0.036-5.184-0.432-5.184-5.363
		c0-5.075,2.664-5.867,5.363-5.867c0.972,0,2.16,0.108,2.951,0.433v-3.168c0-2.34-1.151-2.844-2.843-2.844
		c-2.269,0-4.212,0.468-5.184,0.899c-0.216-0.432-0.288-0.827-0.288-1.151C706.305,74.419,706.413,74.131,706.593,73.986z
		 M712.28,82.086c-2.052,0-3.924,0.432-3.924,4.248c0,3.419,1.584,3.707,3.42,3.707c1.151,0,2.268-0.432,2.663-0.792
		c0.108-1.512,0.18-4.464,0.18-6.804C713.936,82.193,712.964,82.086,712.28,82.086z"/>
	<path fill="#82D3F5" d="M722.252,90.941c0,0.467-0.036,0.467-1.979,0.467V65.924c0-0.972,0.396-0.972,1.979-0.972V90.941z"/>
</g>
<line fill="#82D3F5" stroke="#82D3F5" stroke-width="4" stroke-miterlimit="10" x1="258.891" y1="79" x2="190.891" y2="79"/>
<line fill="#82D3F5" stroke="#82D3F5" stroke-width="4" stroke-miterlimit="10" x1="557.891" y1="79" x2="488.891" y2="79"/>
<rect x="244.891" y="70" width="20" height="17"/>
<rect x="483.891" y="70" width="20" height="17"/>
</svg>
