<?xml version="1.0" encoding="utf-8"?>
<!-- Generator: Adobe Illustrator 18.1.1, SVG Export Plug-In . SVG Version: 6.00 Build 0)  -->
<svg version="1.1" id="Ebene_1" xmlns="http://www.w3.org/2000/svg" xmlns:xlink="http://www.w3.org/1999/xlink" x="0px" y="0px"
	 viewBox="0 0 482.2 91.1" enable-background="new 0 0 482.2 91.1" xml:space="preserve">
<g>
	<rect x="8.7" y="35" fill="none" width="98.3" height="31.2"/>
	<path fill="#82D3F5" d="M10,36.5c0-0.7,0-0.7,1.3-0.7v16.5c0,0.3,0,0.3-1.3,0.3V36.5z"/>
	<path fill="#82D3F5" d="M14,41.2c1.1-0.5,2.5-0.8,3.9-0.8c2.6,0,3.3,1,3.3,3.3v8.6c0,0.3,0,0.3-1.3,0.3V44c0-1.7-0.3-2.5-2-2.5
		c-0.7,0-1.8,0.2-2.5,0.6v10.2c0,0.3,0,0.3-1.3,0.3V41.2z"/>
	<path fill="#82D3F5" d="M23.7,41.3c1-0.6,2.2-1,3.5-1c2.4,0,4,1.1,4,5.1c0,6.5-2.4,7.4-3.9,7.4c-1,0-1.8-0.4-2.2-0.9v5.3
		c-0.2,0-0.5,0.1-0.7,0.1c-0.4,0-0.6-0.1-0.6-0.6V41.3z M25,50.5c0.4,0.7,1.1,1.1,1.8,1.1c1,0,2.9-0.6,2.9-6c0-3.3-0.9-4.2-2.6-4.2
		c-0.8,0-1.5,0.2-2.1,0.6V50.5z"/>
	<path fill="#82D3F5" d="M40.5,52c-1.1,0.6-2.4,0.8-3.6,0.8c-2.8,0-3.5-1.2-3.5-4.3v-7.6c0-0.3,0-0.3,1.3-0.3v8.1c0,2.2,0.4,3,2.3,3
		c0.5,0,1.5-0.1,2.2-0.6V40.9c0-0.3,0-0.3,1.3-0.3V52z"/>
	<path fill="#82D3F5" d="M44.3,41.8h-1.8c0-1.1,0-1.2,0.3-1.2h1.5v-3.8c0-0.5,0.2-0.5,1.3-0.5v4.3h2.9c0,1.1,0,1.2-0.3,1.2h-2.6v7.4
		c0,1.4,0,2.5,1.1,2.5c0.7,0,1-0.1,1.6-0.4c0,0.2,0.1,0.4,0.1,0.7c0,0.6-1,0.9-1.9,0.9c-2,0-2.1-1.5-2.1-3.7V41.8z"/>
	<path fill="#82D3F5" d="M61.1,41.6c0,0.2-0.1,0.5-0.3,0.7c-0.8-0.5-1.6-0.8-2.6-0.8c-1.5,0-2.5,0.6-2.5,1.6c0,0.6,0.2,1,1.2,1.7
		l2.6,1.8c1.1,0.9,1.6,1.8,1.6,3c0,2.1-1.5,3.2-3.9,3.2c-1.8,0-3-0.5-3-1c0-0.3,0.1-0.5,0.3-0.8c0.7,0.4,1.5,0.6,2.6,0.6
		c1.6,0,2.6-0.6,2.6-1.8c0-0.9-0.4-1.6-1.3-2.3l-2.5-1.8c-1.3-0.9-1.6-1.7-1.6-2.5c0-1.7,1.5-2.7,3.9-2.7
		C60.3,40.4,61.1,41.2,61.1,41.6z"/>
	<path fill="#82D3F5" d="M64.1,35.4c0.6,0,0.7,0.3,0.7,1.1c0,0.7-0.3,1.1-0.8,1.1c-0.5,0-0.7-0.3-0.7-1.1
		C63.3,35.8,63.6,35.4,64.1,35.4z M64.7,52.3c0,0.3,0,0.3-1.4,0.3V41.2c0-0.6,0.3-0.6,1.4-0.6V52.3z"/>
	<path fill="#82D3F5" d="M72.3,40.5h3c0,0.1,0.1,0.3,0.1,0.6c0,0.4-0.2,0.5-0.6,0.5c-0.4,0-0.8,0-1.3-0.1c0.8,0.5,1.3,1.5,1.3,3
		c0,2.5-1.1,4.4-3.9,4.4c-0.5,0-1,0-1.4-0.2c-0.5,0.4-1,1-1,1.4c0,0.5,1.5,0.7,3.5,1c1.8,0.2,3.2,0.7,3.2,2.6c0,1.8-1.5,3.6-4.7,3.6
		s-3.8-1.3-3.8-2.5c0-1.2,0.9-2.3,2-3c-1-0.3-1.6-0.7-1.6-1.3c0-0.6,0.7-1.5,1.5-2.1c-1.2-0.7-1.5-2.1-1.5-3.7c0-3,1.7-4.3,4-4.3
		C71.5,40.4,71.9,40.4,72.3,40.5z M70,52c-0.9,0.6-1.7,1.6-1.7,2.5c0,0.9,0.4,1.6,2.6,1.6S74,55,74,53.9c0-1.3-1-1.6-2.7-1.8
		C70.8,52.1,70.4,52,70,52z M68.7,44.7c0,1.8,0.3,3.1,2.5,3.1c1.7,0,2.5-1.6,2.5-3.6c0-2-0.9-2.8-2.4-2.8
		C69.8,41.4,68.7,42.4,68.7,44.7z"/>
	<path fill="#82D3F5" d="M77.1,41.2c1.1-0.5,2.5-0.8,3.9-0.8c2.6,0,3.3,1,3.3,3.3v8.6c0,0.3,0,0.3-1.3,0.3V44c0-1.7-0.3-2.5-2-2.5
		c-0.7,0-1.8,0.2-2.5,0.6v10.2c0,0.3,0,0.3-1.3,0.3V41.2z"/>
	<path fill="#82D3F5" d="M86.5,41c0.5-0.3,2-0.6,3.8-0.6c1.9,0,2.9,0.7,2.9,2.9v1.4c0,2.7,0,5.4-0.1,7.3c-0.6,0.3-1.6,0.9-3.3,0.9
		c-1.7,0-3.5-0.3-3.5-3.6c0-3.4,1.8-3.9,3.6-3.9c0.6,0,1.4,0.1,2,0.3v-2.1c0-1.6-0.8-1.9-1.9-1.9c-1.5,0-2.8,0.3-3.5,0.6
		c-0.1-0.3-0.2-0.6-0.2-0.8C86.3,41.3,86.3,41.1,86.5,41z M90.2,46.4c-1.4,0-2.6,0.3-2.6,2.8c0,2.3,1.1,2.5,2.3,2.5
		c0.8,0,1.5-0.3,1.8-0.5c0.1-1,0.1-3,0.1-4.5C91.4,46.5,90.7,46.4,90.2,46.4z"/>
	<path fill="#82D3F5" d="M96.9,52.3c0,0.3,0,0.3-1.3,0.3v-17c0-0.6,0.3-0.6,1.3-0.6V52.3z"/>
</g>
<g>
	<rect x="366.7" y="35" fill="none" width="111.9" height="31.2"/>
	<path fill="#82D3F5" d="M372.2,35.6c3.1,0,4.3,2.1,4.3,8.5c0,6.5-1.4,8.8-4.5,8.8c-3.1,0-4.3-2-4.3-8.8
		C367.6,37.8,369.1,35.6,372.2,35.6z M372,51.5c2.2,0,3.1-2,3.1-7.4c0-5.3-0.8-7.1-2.9-7.1c-2.1,0-3.1,2-3.1,7.6
		C369.1,49.6,369.9,51.5,372,51.5z"/>
	<path fill="#82D3F5" d="M386,52c-1.1,0.6-2.4,0.8-3.6,0.8c-2.8,0-3.5-1.2-3.5-4.3v-7.6c0-0.3,0-0.3,1.3-0.3v8.1c0,2.2,0.4,3,2.3,3
		c0.5,0,1.5-0.1,2.2-0.6V40.9c0-0.3,0-0.3,1.3-0.3V52z"/>
	<path fill="#82D3F5" d="M389.8,41.8h-1.8c0-1.1,0-1.2,0.3-1.2h1.5v-3.8c0-0.5,0.2-0.5,1.3-0.5v4.3h2.9c0,1.1,0,1.2-0.3,1.2h-2.6
		v7.4c0,1.4,0,2.5,1.1,2.5c0.7,0,1-0.1,1.6-0.4c0,0.2,0.1,0.4,0.1,0.7c0,0.6-1,0.9-1.9,0.9c-2,0-2.1-1.5-2.1-3.7V41.8z"/>
	<path fill="#82D3F5" d="M395.9,41.3c1-0.6,2.2-1,3.5-1c2.4,0,4,1.1,4,5.1c0,6.5-2.4,7.4-3.9,7.4c-1,0-1.8-0.4-2.2-0.9v5.3
		c-0.2,0-0.5,0.1-0.7,0.1c-0.4,0-0.6-0.1-0.6-0.6V41.3z M397.3,50.5c0.4,0.7,1.1,1.1,1.8,1.1c1,0,2.9-0.6,2.9-6
		c0-3.3-0.9-4.2-2.6-4.2c-0.8,0-1.5,0.2-2.1,0.6V50.5z"/>
	<path fill="#82D3F5" d="M412.7,52c-1.1,0.6-2.4,0.8-3.6,0.8c-2.8,0-3.5-1.2-3.5-4.3v-7.6c0-0.3,0-0.3,1.3-0.3v8.1
		c0,2.2,0.4,3,2.3,3c0.5,0,1.5-0.1,2.2-0.6V40.9c0-0.3,0-0.3,1.3-0.3V52z"/>
	<path fill="#82D3F5" d="M416.6,41.8h-1.8c0-1.1,0-1.2,0.3-1.2h1.5v-3.8c0-0.5,0.2-0.5,1.3-0.5v4.3h2.9c0,1.1,0,1.2-0.3,1.2h-2.6
		v7.4c0,1.4,0,2.5,1.1,2.5c0.7,0,1-0.1,1.6-0.4c0,0.2,0.1,0.4,0.1,0.7c0,0.6-1,0.9-1.9,0.9c-2,0-2.1-1.5-2.1-3.7V41.8z"/>
	<path fill="#82D3F5" d="M433.4,41.6c0,0.2-0.1,0.5-0.3,0.7c-0.8-0.5-1.6-0.8-2.6-0.8c-1.5,0-2.5,0.6-2.5,1.6c0,0.6,0.2,1,1.2,1.7
		l2.6,1.8c1.1,0.9,1.6,1.8,1.6,3c0,2.1-1.5,3.2-3.9,3.2c-1.8,0-3-0.5-3-1c0-0.3,0.1-0.5,0.3-0.8c0.7,0.4,1.5,0.6,2.6,0.6
		c1.6,0,2.6-0.6,2.6-1.8c0-0.9-0.4-1.6-1.3-2.3l-2.5-1.8c-1.3-0.9-1.6-1.7-1.6-2.5c0-1.7,1.5-2.7,3.9-2.7
		C432.6,40.4,433.4,41.2,433.4,41.6z"/>
	<path fill="#82D3F5" d="M436.4,35.4c0.6,0,0.7,0.3,0.7,1.1c0,0.7-0.3,1.1-0.8,1.1c-0.5,0-0.7-0.3-0.7-1.1
		C435.6,35.8,435.8,35.4,436.4,35.4z M437,52.3c0,0.3,0,0.3-1.4,0.3V41.2c0-0.6,0.3-0.6,1.4-0.6V52.3z"/>
	<path fill="#82D3F5" d="M444.6,40.5h3c0,0.1,0.1,0.3,0.1,0.6c0,0.4-0.2,0.5-0.6,0.5c-0.4,0-0.8,0-1.3-0.1c0.8,0.5,1.3,1.5,1.3,3
		c0,2.5-1.1,4.4-3.9,4.4c-0.5,0-1,0-1.4-0.2c-0.5,0.4-1,1-1,1.4c0,0.5,1.5,0.7,3.5,1c1.8,0.2,3.2,0.7,3.2,2.6c0,1.8-1.5,3.6-4.7,3.6
		s-3.8-1.3-3.8-2.5c0-1.2,0.9-2.3,2-3c-1-0.3-1.6-0.7-1.6-1.3c0-0.6,0.7-1.5,1.5-2.1c-1.2-0.7-1.5-2.1-1.5-3.7c0-3,1.7-4.3,4-4.3
		C443.7,40.4,444.2,40.4,444.6,40.5z M442.2,52c-0.9,0.6-1.7,1.6-1.7,2.5c0,0.9,0.4,1.6,2.6,1.6s3.2-1.2,3.2-2.2
		c0-1.3-1-1.6-2.7-1.8C443.1,52.1,442.6,52,442.2,52z M440.9,44.7c0,1.8,0.3,3.1,2.5,3.1c1.7,0,2.5-1.6,2.5-3.6c0-2-0.9-2.8-2.4-2.8
		C442.1,41.4,440.9,42.4,440.9,44.7z"/>
	<path fill="#82D3F5" d="M449.4,41.2c1.1-0.5,2.5-0.8,3.9-0.8c2.6,0,3.3,1,3.3,3.3v8.6c0,0.3,0,0.3-1.3,0.3V44c0-1.7-0.3-2.5-2-2.5
		c-0.7,0-1.8,0.2-2.5,0.6v10.2c0,0.3,0,0.3-1.3,0.3V41.2z"/>
	<path fill="#82D3F5" d="M458.7,41c0.5-0.3,2-0.6,3.8-0.6c1.9,0,2.9,0.7,2.9,2.9v1.4c0,2.7,0,5.4-0.1,7.3c-0.6,0.3-1.6,0.9-3.3,0.9
		c-1.7,0-3.5-0.3-3.5-3.6c0-3.4,1.8-3.9,3.6-3.9c0.6,0,1.4,0.1,2,0.3v-2.1c0-1.6-0.8-1.9-1.9-1.9c-1.5,0-2.8,0.3-3.5,0.6
		c-0.1-0.3-0.2-0.6-0.2-0.8C458.5,41.3,458.6,41.1,458.7,41z M462.5,46.4c-1.4,0-2.6,0.3-2.6,2.8c0,2.3,1.1,2.5,2.3,2.5
		c0.8,0,1.5-0.3,1.8-0.5c0.1-1,0.1-3,0.1-4.5C463.6,46.5,463,46.4,462.5,46.4z"/>
	<path fill="#82D3F5" d="M469.2,52.3c0,0.3,0,0.3-1.3,0.3v-17c0-0.6,0.3-0.6,1.3-0.6V52.3z"/>
</g>
<g>
	<g>
		<line fill="none" stroke="#82D3F5" stroke-miterlimit="10" x1="106.7" y1="45" x2="154.7" y2="45"/>
		<g>
			<path fill="#82D3F5" d="M147.6,49.8c-0.1-0.2-0.1-0.5,0.2-0.7l6.5-4.1l-6.5-4.1c-0.2-0.1-0.3-0.5-0.2-0.7s0.5-0.3,0.7-0.2
				l7.1,4.5c0.1,0.1,0.2,0.3,0.2,0.4s-0.1,0.3-0.2,0.4l-7.1,4.5c-0.1,0.1-0.2,0.1-0.3,0.1C147.9,50,147.7,49.9,147.6,49.8z"/>
		</g>
	</g>
</g>
<g>
	<g>
		<line fill="none" stroke="#82D3F5" stroke-miterlimit="10" x1="306.7" y1="45" x2="359.7" y2="45"/>
		<g>
			<path fill="#82D3F5" d="M352.6,49.8c-0.1-0.2-0.1-0.5,0.2-0.7l6.5-4.1l-6.5-4.1c-0.2-0.1-0.3-0.5-0.2-0.7s0.5-0.3,0.7-0.2
				l7.1,4.5c0.1,0.1,0.2,0.3,0.2,0.4s-0.1,0.3-0.2,0.4l-7.1,4.5c-0.1,0.1-0.2,0.1-0.3,0.1C352.9,50,352.7,49.9,352.6,49.8z"/>
		</g>
	</g>
</g>
<g>
	<rect x="164.1" y="15.5" width="139.3" height="59.3"/>
	<rect x="155.7" y="37.1" width="8.5" height="16"/>
	<rect x="302.7" y="37.1" width="8.5" height="16"/>
	<g>
		<rect x="175.7" y="24.8" fill="none" width="114.3" height="52.7"/>
		<path fill="#FFFFFF" d="M196.7,25.4c0-0.6,0.3-0.6,1.3-0.6v6.4c0.7-0.6,1.6-1,3-1c1.9,0,3.1,1.2,3.1,4.6c0,7-2.7,7.9-4.7,7.9
			c-1.2,0-2.2-0.3-2.8-0.7V25.4z M198,41c0.2,0.2,0.7,0.4,1.6,0.4c1.2,0,3.1-0.7,3.1-6.3c0-2.9-0.7-3.7-2.3-3.7
			c-0.9,0-1.7,0.3-2.4,0.9V41z"/>
		<path fill="#FFFFFF" d="M207.6,42.1c0,0.3,0,0.3-1.3,0.3v-17c0-0.6,0.3-0.6,1.3-0.6V42.1z"/>
		<path fill="#FFFFFF" d="M210.1,30.8c0.5-0.3,2-0.6,3.8-0.6c1.9,0,2.9,0.7,2.9,2.9v1.4c0,2.7,0,5.4-0.1,7.3
			c-0.6,0.3-1.6,0.9-3.3,0.9c-1.7,0-3.5-0.3-3.5-3.6c0-3.4,1.8-3.9,3.6-3.9c0.6,0,1.4,0.1,2,0.3v-2.1c0-1.6-0.8-1.9-1.9-1.9
			c-1.5,0-2.8,0.3-3.5,0.6c-0.1-0.3-0.2-0.6-0.2-0.8C209.9,31.1,209.9,30.9,210.1,30.8z M213.8,36.2c-1.4,0-2.6,0.3-2.6,2.8
			c0,2.3,1.1,2.5,2.3,2.5c0.8,0,1.5-0.3,1.8-0.5c0.1-1,0.1-3,0.1-4.5C215,36.3,214.3,36.2,213.8,36.2z"/>
		<path fill="#FFFFFF" d="M224.9,31.9c-0.4-0.3-1.1-0.6-1.9-0.6c-1.3,0-3,0.6-3,5.4c0,3.9,1,4.7,2.6,4.7c1,0,1.8-0.4,2.2-0.7
			c0.1,0.3,0.2,0.5,0.2,0.8c0,0.5-1.1,1.2-2.7,1.2c-2.2,0-3.6-0.8-3.6-6c0-5.8,2.4-6.5,4.3-6.5c1.1,0,2,0.4,2,1
			C225.1,31.3,225.1,31.6,224.9,31.9z"/>
		<path fill="#FFFFFF" d="M227.1,25.4c0-0.6,0.3-0.6,1.3-0.6v6.9c1-1,2.4-1.5,3.4-1.5c1.6,0,2.1,0.8,2.1,2.1c0,2.2-1.9,3.4-2.5,3.8
			c1.1,0.2,2.6,1.2,2.9,3.6c0,0.3,0.1,0.7,0.1,1.1c0,0.4,0,0.8-0.1,1.3c0,0.3,0,0.3-1.5,0.3c0.1-0.6,0.1-1,0.1-1.5
			c0-0.7-0.1-1.4-0.2-1.9c-0.6-2-2-2.4-2.9-2.1c-0.5,0.1-1.4,0.5-1.4,0.5v4.7c0,0.3,0,0.3-1.3,0.3V25.4z M231.3,31.4
			c-0.9,0-1.9,0.4-2.8,1.5v3.5c2.3-0.8,4.1-1.9,4.1-3.8C232.5,31.8,232.1,31.4,231.3,31.4z"/>
		<path fill="#FFFFFF" d="M235.7,36.3c0-0.9,0-1.2,0.3-1.2h4.6c0,0.9,0,1.2-0.3,1.2H235.7z"/>
		<path fill="#FFFFFF" d="M243,25.4c0-0.6,0.3-0.6,1.3-0.6v6.4c0.7-0.6,1.6-1,3-1c1.9,0,3.1,1.2,3.1,4.6c0,7-2.7,7.9-4.7,7.9
			c-1.2,0-2.2-0.3-2.8-0.7V25.4z M244.4,41c0.2,0.2,0.7,0.4,1.6,0.4c1.2,0,3.1-0.7,3.1-6.3c0-2.9-0.7-3.7-2.3-3.7
			c-0.9,0-1.7,0.3-2.4,0.9V41z"/>
		<path fill="#FFFFFF" d="M256,30.2c2.5,0,3.7,1.3,3.7,6.2c0,4.3-1.4,6.2-4,6.2c-2.3,0-3.7-0.8-3.7-6.2C252,32,253.5,30.2,256,30.2z
			 M255.8,41.5c1.5,0,2.5-1.4,2.5-5.1c0-4.2-0.8-5-2.4-5c-1.5,0-2.5,1.2-2.5,5.2C253.4,40.7,254.3,41.5,255.8,41.5z"/>
		<path fill="#FFFFFF" d="M265.9,36l3.7,6c0.2,0.3,0.2,0.3-1.4,0.3l-1.2-1.9c-0.8-1.2-1.7-2.8-2-3.5c-0.3,0.6-1.2,2.2-2,3.5
			l-1.1,1.6c-0.1,0.3-0.3,0.3-1.6,0.3l3.9-6.3l-3.3-5.5c-0.1-0.2-0.1-0.2,1.4-0.2l1.2,1.9c0.6,1,1.4,2.4,1.6,2.9
			c0.3-0.5,1-1.8,1.7-2.9l1.1-1.6c0.1-0.2,0.1-0.2,1.5-0.2L265.9,36z"/>
		<path fill="#FFFFFF" d="M197.3,52.9c-0.4-0.3-1.1-0.6-1.9-0.6c-1.3,0-3,0.6-3,5.4c0,3.9,1,4.7,2.6,4.7c1,0,1.8-0.4,2.2-0.7
			c0.1,0.3,0.2,0.5,0.2,0.8c0,0.5-1.1,1.2-2.7,1.2c-2.2,0-3.6-0.8-3.6-6c0-5.8,2.4-6.5,4.3-6.5c1.1,0,2,0.4,2,1
			C197.4,52.3,197.4,52.6,197.3,52.9z"/>
		<path fill="#FFFFFF" d="M202.6,51.2c2.5,0,3.7,1.3,3.7,6.2c0,4.3-1.4,6.2-4,6.2c-2.3,0-3.7-0.8-3.7-6.2
			C198.6,53,200.1,51.2,202.6,51.2z M202.4,62.5c1.5,0,2.5-1.4,2.5-5.1c0-4.2-0.8-5-2.4-5c-1.5,0-2.5,1.2-2.5,5.2
			C200,61.7,200.9,62.5,202.4,62.5z"/>
		<path fill="#FFFFFF" d="M213.6,54c0-1.1-0.3-1.7-1.6-1.7c-0.7,0-1.4,0.1-2.2,0.5v10.2c0,0.3-0.1,0.3-1.3,0.3V52
			c1.2-0.5,2.4-0.8,3.6-0.8s1.9,0.3,2.3,0.9c0.9-0.6,2-0.9,3-0.9c2.4,0,2.7,1.2,2.7,3.5v8.4c0,0.3,0,0.3-1.3,0.3v-8.8
			c0-1.6-0.2-2.2-1.6-2.2c-0.7,0-1.4,0.1-2.2,0.6v10.1c0,0.1,0,0.2-0.1,0.3h0c-0.1,0-0.5,0-1.2,0V54z"/>
		<path fill="#FFFFFF" d="M222.6,52.1c1-0.6,2.2-1,3.5-1c2.4,0,4,1.1,4,5.1c0,6.5-2.4,7.4-3.9,7.4c-1,0-1.8-0.4-2.2-0.9v5.3
			c-0.2,0-0.5,0.1-0.7,0.1c-0.4,0-0.6-0.1-0.6-0.6V52.1z M224,61.4c0.4,0.7,1.1,1.1,1.8,1.1c1,0,2.9-0.6,2.9-6
			c0-3.3-0.9-4.2-2.6-4.2c-0.8,0-1.5,0.2-2.1,0.6V61.4z"/>
		<path fill="#FFFFFF" d="M235.6,51.2c2.5,0,3.7,1.3,3.7,6.2c0,4.3-1.4,6.2-4,6.2c-2.3,0-3.7-0.8-3.7-6.2
			C231.6,53,233.1,51.2,235.6,51.2z M235.4,62.5c1.5,0,2.5-1.4,2.5-5.1c0-4.2-0.8-5-2.4-5c-1.5,0-2.5,1.2-2.5,5.2
			C233,61.7,233.9,62.5,235.4,62.5z"/>
		<path fill="#FFFFFF" d="M241.4,52c1.1-0.5,2.5-0.8,3.9-0.8c2.6,0,3.3,1,3.3,3.3v8.6c0,0.3,0,0.3-1.3,0.3v-8.6c0-1.7-0.3-2.5-2-2.5
			c-0.7,0-1.8,0.2-2.5,0.6v10.2c0,0.3,0,0.3-1.3,0.3V52z"/>
		<path fill="#FFFFFF" d="M257.9,55c0,1-0.1,2.1-0.2,2.9c-2,0.4-4.7,0.4-5.7,0.4c0,3.5,1.1,4.1,2.8,4.1c1.1,0,2.1-0.3,2.9-0.8
			c0.1,0.3,0.2,0.7,0.2,0.9c0,0.6-1.5,1.2-3.3,1.2c-2.3,0-3.9-0.8-3.9-5.6c0-6.2,2.3-6.9,4.3-6.9C257,51.2,257.9,52.6,257.9,55z
			 M252,57.2c1,0,3.2,0,4.6-0.3c0.1-0.6,0.1-1.1,0.1-1.6c0-1.9-0.4-2.9-1.8-2.9C253.5,52.4,252.1,52.9,252,57.2z"/>
		<path fill="#FFFFFF" d="M260,52c1.1-0.5,2.5-0.8,3.9-0.8c2.6,0,3.3,1,3.3,3.3v8.6c0,0.3,0,0.3-1.3,0.3v-8.6c0-1.7-0.3-2.5-2-2.5
			c-0.7,0-1.8,0.2-2.5,0.6v10.2c0,0.3,0,0.3-1.3,0.3V52z"/>
		<path fill="#FFFFFF" d="M270.7,52.6H269c0-1.1,0-1.2,0.3-1.2h1.5v-3.8c0-0.5,0.2-0.5,1.3-0.5v4.3h2.9c0,1.1,0,1.2-0.3,1.2H272V60
			c0,1.4,0,2.5,1.1,2.5c0.7,0,1-0.1,1.6-0.4c0,0.2,0.1,0.4,0.1,0.7c0,0.6-1,0.9-1.9,0.9c-2,0-2.1-1.5-2.1-3.7V52.6z"/>
	</g>
</g>
<g>
</g>
<g>
</g>
<g>
</g>
<g>
</g>
<g>
</g>
<g>
</g>
<g>
</g>
<g>
</g>
<g>
</g>
<g>
</g>
<g>
</g>
<g>
</g>
<g>
</g>
<g>
</g>
<g>
</g>
<g>
</g>
</svg>
