<?xml version="1.0" encoding="utf-8"?>
<!-- Generator: Adobe Illustrator 18.1.1, SVG Export Plug-In . SVG Version: 6.00 Build 0)  -->
<svg version="1.1" id="Ebene_1" xmlns="http://www.w3.org/2000/svg" xmlns:xlink="http://www.w3.org/1999/xlink" x="0px" y="0px"
	 viewBox="0 0 482.2 93.5" enable-background="new 0 0 482.2 93.5" xml:space="preserve">
<g>
	<rect x="368.7" y="54.2" fill="none" width="113.4" height="27.5"/>
	<path fill="#82D3F5" d="M374.2,54.8c3.1,0,4.3,2.1,4.3,8.5c0,6.5-1.4,8.8-4.5,8.8c-3.1,0-4.3-2-4.3-8.8
		C369.6,57.1,371.1,54.8,374.2,54.8z M374,70.7c2.2,0,3.1-2,3.1-7.4c0-5.3-0.8-7.1-2.9-7.1c-2.1,0-3.1,2-3.1,7.6
		C371.1,68.8,371.9,70.7,374,70.7z"/>
	<path fill="#82D3F5" d="M388,71.2c-1.1,0.6-2.4,0.8-3.6,0.8c-2.8,0-3.5-1.2-3.5-4.3v-7.6c0-0.3,0-0.3,1.3-0.3v8.1
		c0,2.2,0.4,3,2.3,3c0.5,0,1.5-0.1,2.2-0.6V60.1c0-0.3,0-0.3,1.3-0.3V71.2z"/>
	<path fill="#82D3F5" d="M391.8,61h-1.8c0-1.1,0-1.2,0.3-1.2h1.5V56c0-0.5,0.2-0.5,1.3-0.5v4.3h2.9c0,1.1,0,1.2-0.3,1.2h-2.6v7.4
		c0,1.4,0,2.5,1.1,2.5c0.7,0,1-0.1,1.6-0.4c0,0.2,0.1,0.4,0.1,0.7c0,0.6-1,0.9-1.9,0.9c-2,0-2.1-1.5-2.1-3.7V61z"/>
	<path fill="#82D3F5" d="M397.9,60.5c1-0.6,2.2-1,3.5-1c2.4,0,4,1.1,4,5.1c0,6.5-2.4,7.4-3.9,7.4c-1,0-1.8-0.4-2.2-0.9v5.3
		c-0.2,0-0.5,0.1-0.7,0.1c-0.4,0-0.6-0.1-0.6-0.6V60.5z M399.3,69.7c0.4,0.7,1.1,1.1,1.8,1.1c1,0,2.9-0.6,2.9-6
		c0-3.3-0.9-4.2-2.6-4.2c-0.8,0-1.5,0.2-2.1,0.6V69.7z"/>
	<path fill="#82D3F5" d="M414.7,71.2c-1.1,0.6-2.4,0.8-3.6,0.8c-2.8,0-3.5-1.2-3.5-4.3v-7.6c0-0.3,0-0.3,1.3-0.3v8.1
		c0,2.2,0.4,3,2.3,3c0.5,0,1.5-0.1,2.2-0.6V60.1c0-0.3,0-0.3,1.3-0.3V71.2z"/>
	<path fill="#82D3F5" d="M418.6,61h-1.8c0-1.1,0-1.2,0.3-1.2h1.5V56c0-0.5,0.2-0.5,1.3-0.5v4.3h2.9c0,1.1,0,1.2-0.3,1.2h-2.6v7.4
		c0,1.4,0,2.5,1.1,2.5c0.7,0,1-0.1,1.6-0.4c0,0.2,0.1,0.4,0.1,0.7c0,0.6-1,0.9-1.9,0.9c-2,0-2.1-1.5-2.1-3.7V61z"/>
	<path fill="#82D3F5" d="M435.4,60.8c0,0.2-0.1,0.5-0.3,0.7c-0.8-0.5-1.6-0.8-2.6-0.8c-1.5,0-2.5,0.6-2.5,1.6c0,0.6,0.2,1,1.2,1.7
		l2.6,1.8c1.1,0.9,1.6,1.8,1.6,3c0,2.1-1.5,3.2-3.9,3.2c-1.8,0-3-0.5-3-1c0-0.3,0.1-0.5,0.3-0.8c0.7,0.4,1.5,0.6,2.6,0.6
		c1.6,0,2.6-0.6,2.6-1.8c0-0.9-0.4-1.6-1.3-2.3l-2.5-1.8c-1.3-0.9-1.6-1.7-1.6-2.5c0-1.7,1.5-2.7,3.9-2.7
		C434.6,59.6,435.4,60.4,435.4,60.8z"/>
	<path fill="#82D3F5" d="M438.4,54.7c0.6,0,0.7,0.3,0.7,1.1c0,0.7-0.3,1.1-0.8,1.1c-0.5,0-0.7-0.3-0.7-1.1
		C437.6,55.1,437.8,54.7,438.4,54.7z M439,71.5c0,0.3,0,0.3-1.4,0.3V60.5c0-0.6,0.3-0.6,1.4-0.6V71.5z"/>
	<path fill="#82D3F5" d="M446.6,59.7h3c0,0.1,0.1,0.3,0.1,0.6c0,0.4-0.2,0.5-0.6,0.5c-0.4,0-0.8,0-1.3-0.1c0.8,0.5,1.3,1.5,1.3,3
		c0,2.5-1.1,4.4-3.9,4.4c-0.5,0-1,0-1.4-0.2c-0.5,0.4-1,1-1,1.4c0,0.5,1.5,0.7,3.5,1c1.8,0.2,3.2,0.7,3.2,2.6c0,1.8-1.5,3.6-4.7,3.6
		s-3.8-1.3-3.8-2.5c0-1.2,0.9-2.3,2-3c-1-0.3-1.6-0.7-1.6-1.3c0-0.6,0.7-1.5,1.5-2.1c-1.2-0.7-1.5-2.1-1.5-3.7c0-3,1.7-4.3,4-4.3
		C445.7,59.6,446.2,59.6,446.6,59.7z M444.2,71.2c-0.9,0.6-1.7,1.6-1.7,2.5c0,0.9,0.4,1.6,2.6,1.6s3.2-1.2,3.2-2.2
		c0-1.3-1-1.6-2.7-1.8C445.1,71.3,444.6,71.3,444.2,71.2z M442.9,63.9c0,1.8,0.3,3.1,2.5,3.1c1.7,0,2.5-1.6,2.5-3.6
		c0-2-0.9-2.8-2.4-2.8C444.1,60.6,442.9,61.6,442.9,63.9z"/>
	<path fill="#82D3F5" d="M452.2,69.8c0.7,0,1.1,0.5,1.1,1.1c0,0.6-0.4,1.1-1.1,1.1c-0.7,0-1-0.4-1-1.1
		C451.2,70.3,451.6,69.8,452.2,69.8z"/>
	<path fill="#82D3F5" d="M466,67l-0.1,1.9c0,0.3-0.3,0.3-1.2,0.3l0.1-2.2h-2.7l-0.1,1.9c0,0.3-0.3,0.3-1.2,0.3l0.1-2.2h-1.5
		c0-0.9,0-1.1,0.3-1.1h1.3l0.2-3h-1.8c0-0.9,0-1.1,0.3-1.1h1.5l0.1-1.7c0-0.3,0.3-0.3,1.2-0.3l-0.1,2h2.7l0.1-1.7
		c0-0.3,0.3-0.3,1.2-0.3l-0.1,2h1.7c0,0.9,0,1.1-0.3,1.1h-1.4l-0.2,3h1.9c0,0.9,0,1.1-0.3,1.1H466z M462.2,65.9h2.7l0.2-3h-2.7
		L462.2,65.9z"/>
	<path fill="#82D3F5" d="M470.2,58.6c0-0.4,1.7-1.2,4.2-1.2c2.8,0,3.5,1.1,3.5,3.1c0,3.7-4,6.3-6.4,10h4.4c0.7,0,2.4-0.1,2.4-0.1
		c0,0.8,0,1.3-0.2,1.3h-8.3c0-0.1-0.1-0.3-0.1-0.5c0-0.5,0.2-0.6,0.6-1.3c2.2-3.5,6.1-6,6.1-9.3c0-1.2-0.4-2-2.2-2
		c-1.7,0-3,0.4-3.8,0.9C470.3,59.3,470.2,58.9,470.2,58.6z"/>
</g>
<g>
	<rect x="368.7" y="17.1" fill="none" width="113.4" height="31.2"/>
	<path fill="#82D3F5" d="M374.2,17.7c3.1,0,4.3,2.1,4.3,8.5c0,6.5-1.4,8.8-4.5,8.8c-3.1,0-4.3-2-4.3-8.8
		C369.6,19.9,371.1,17.7,374.2,17.7z M374,33.6c2.2,0,3.1-2,3.1-7.4c0-5.3-0.8-7.1-2.9-7.1c-2.1,0-3.1,2-3.1,7.6
		C371.1,31.7,371.9,33.6,374,33.6z"/>
	<path fill="#82D3F5" d="M388,34.1c-1.1,0.6-2.4,0.8-3.6,0.8c-2.8,0-3.5-1.2-3.5-4.3V23c0-0.3,0-0.3,1.3-0.3v8.1c0,2.2,0.4,3,2.3,3
		c0.5,0,1.5-0.1,2.2-0.6V23c0-0.3,0-0.3,1.3-0.3V34.1z"/>
	<path fill="#82D3F5" d="M391.8,23.9h-1.8c0-1.1,0-1.2,0.3-1.2h1.5v-3.8c0-0.5,0.2-0.5,1.3-0.5v4.3h2.9c0,1.1,0,1.2-0.3,1.2h-2.6
		v7.4c0,1.4,0,2.5,1.1,2.5c0.7,0,1-0.1,1.6-0.4c0,0.2,0.1,0.4,0.1,0.7c0,0.6-1,0.9-1.9,0.9c-2,0-2.1-1.5-2.1-3.7V23.9z"/>
	<path fill="#82D3F5" d="M397.9,23.4c1-0.6,2.2-1,3.5-1c2.4,0,4,1.1,4,5.1c0,6.5-2.4,7.4-3.9,7.4c-1,0-1.8-0.4-2.2-0.9v5.3
		c-0.2,0-0.5,0.1-0.7,0.1c-0.4,0-0.6-0.1-0.6-0.6V23.4z M399.3,32.6c0.4,0.7,1.1,1.1,1.8,1.1c1,0,2.9-0.6,2.9-6
		c0-3.3-0.9-4.2-2.6-4.2c-0.8,0-1.5,0.2-2.1,0.6V32.6z"/>
	<path fill="#82D3F5" d="M414.7,34.1c-1.1,0.6-2.4,0.8-3.6,0.8c-2.8,0-3.5-1.2-3.5-4.3V23c0-0.3,0-0.3,1.3-0.3v8.1
		c0,2.2,0.4,3,2.3,3c0.5,0,1.5-0.1,2.2-0.6V23c0-0.3,0-0.3,1.3-0.3V34.1z"/>
	<path fill="#82D3F5" d="M418.6,23.9h-1.8c0-1.1,0-1.2,0.3-1.2h1.5v-3.8c0-0.5,0.2-0.5,1.3-0.5v4.3h2.9c0,1.1,0,1.2-0.3,1.2h-2.6
		v7.4c0,1.4,0,2.5,1.1,2.5c0.7,0,1-0.1,1.6-0.4c0,0.2,0.1,0.4,0.1,0.7c0,0.6-1,0.9-1.9,0.9c-2,0-2.1-1.5-2.1-3.7V23.9z"/>
	<path fill="#82D3F5" d="M435.4,23.7c0,0.2-0.1,0.5-0.3,0.7c-0.8-0.5-1.6-0.8-2.6-0.8c-1.5,0-2.5,0.6-2.5,1.6c0,0.6,0.2,1,1.2,1.7
		l2.6,1.8c1.1,0.9,1.6,1.8,1.6,3c0,2.1-1.5,3.2-3.9,3.2c-1.8,0-3-0.5-3-1c0-0.3,0.1-0.5,0.3-0.8c0.7,0.4,1.5,0.6,2.6,0.6
		c1.6,0,2.6-0.6,2.6-1.8c0-0.9-0.4-1.6-1.3-2.3l-2.5-1.8c-1.3-0.9-1.6-1.7-1.6-2.5c0-1.7,1.5-2.7,3.9-2.7
		C434.6,22.5,435.4,23.3,435.4,23.7z"/>
	<path fill="#82D3F5" d="M438.4,17.5c0.6,0,0.7,0.3,0.7,1.1c0,0.7-0.3,1.1-0.8,1.1c-0.5,0-0.7-0.3-0.7-1.1
		C437.6,18,437.8,17.5,438.4,17.5z M439,34.4c0,0.3,0,0.3-1.4,0.3V23.4c0-0.6,0.3-0.6,1.4-0.6V34.4z"/>
	<path fill="#82D3F5" d="M446.6,22.6h3c0,0.1,0.1,0.3,0.1,0.6c0,0.4-0.2,0.5-0.6,0.5c-0.4,0-0.8,0-1.3-0.1c0.8,0.5,1.3,1.5,1.3,3
		c0,2.5-1.1,4.4-3.9,4.4c-0.5,0-1,0-1.4-0.2c-0.5,0.4-1,1-1,1.4c0,0.5,1.5,0.7,3.5,1c1.8,0.2,3.2,0.7,3.2,2.6c0,1.8-1.5,3.6-4.7,3.6
		s-3.8-1.3-3.8-2.5c0-1.2,0.9-2.3,2-3c-1-0.3-1.6-0.7-1.6-1.3c0-0.6,0.7-1.5,1.5-2.1c-1.2-0.7-1.5-2.1-1.5-3.7c0-3,1.7-4.3,4-4.3
		C445.7,22.5,446.2,22.5,446.6,22.6z M444.2,34.1c-0.9,0.6-1.7,1.6-1.7,2.5c0,0.9,0.4,1.6,2.6,1.6s3.2-1.2,3.2-2.2
		c0-1.3-1-1.6-2.7-1.8C445.1,34.2,444.6,34.2,444.2,34.1z M442.9,26.8c0,1.8,0.3,3.1,2.5,3.1c1.7,0,2.5-1.6,2.5-3.6
		c0-2-0.9-2.8-2.4-2.8C444.1,23.5,442.9,24.5,442.9,26.8z"/>
	<path fill="#82D3F5" d="M452.2,32.7c0.7,0,1.1,0.5,1.1,1.1c0,0.6-0.4,1.1-1.1,1.1c-0.7,0-1-0.4-1-1.1
		C451.2,33.2,451.6,32.7,452.2,32.7z"/>
	<path fill="#82D3F5" d="M466,29.9l-0.1,1.9c0,0.3-0.3,0.3-1.2,0.3l0.1-2.2h-2.7l-0.1,1.9c0,0.3-0.3,0.3-1.2,0.3l0.1-2.2h-1.5
		c0-0.9,0-1.1,0.3-1.1h1.3l0.2-3h-1.8c0-0.9,0-1.1,0.3-1.1h1.5l0.1-1.7c0-0.3,0.3-0.3,1.2-0.3l-0.1,2h2.7l0.1-1.7
		c0-0.3,0.3-0.3,1.2-0.3l-0.1,2h1.7c0,0.9,0,1.1-0.3,1.1h-1.4l-0.2,3h1.9c0,0.9,0,1.1-0.3,1.1H466z M462.2,28.8h2.7l0.2-3h-2.7
		L462.2,28.8z"/>
	<path fill="#82D3F5" d="M470.5,21.3c0-0.2,3.8-1,4.3-1c0.1,0,0.3,0.1,0.4,0.1l-0.3,13.1h2.1c0.7,0,1.3-0.1,1.3-0.1
		c0,0.7,0,1.3-0.2,1.3h-8.4c0-0.2,0-0.8,0-1c0-0.2,3-0.3,3.8-0.3l0.3-11.8c-0.5,0-3.1,0.6-3.1,0.6C470.6,22.1,470.5,21.6,470.5,21.3
		z"/>
</g>
<g>
	<rect x="8.7" y="36.2" fill="none" width="111.9" height="31.2"/>
	<path fill="#82D3F5" d="M10,37.7c0-0.7,0-0.7,1.3-0.7v16.5c0,0.3,0,0.3-1.3,0.3V37.7z"/>
	<path fill="#82D3F5" d="M14,42.4c1.1-0.5,2.5-0.8,3.9-0.8c2.6,0,3.3,1,3.3,3.3v8.6c0,0.3,0,0.3-1.3,0.3v-8.6c0-1.7-0.3-2.5-2-2.5
		c-0.7,0-1.8,0.2-2.5,0.6v10.2c0,0.3,0,0.3-1.3,0.3V42.4z"/>
	<path fill="#82D3F5" d="M23.7,42.5c1-0.6,2.2-1,3.5-1c2.4,0,4,1.1,4,5.1c0,6.5-2.4,7.4-3.9,7.4c-1,0-1.8-0.4-2.2-0.9v5.3
		c-0.2,0-0.5,0.1-0.7,0.1c-0.4,0-0.6-0.1-0.6-0.6V42.5z M25,51.8c0.4,0.7,1.1,1.1,1.8,1.1c1,0,2.9-0.6,2.9-6c0-3.3-0.9-4.2-2.6-4.2
		c-0.8,0-1.5,0.2-2.1,0.6V51.8z"/>
	<path fill="#82D3F5" d="M40.5,53.2c-1.1,0.6-2.4,0.8-3.6,0.8c-2.8,0-3.5-1.2-3.5-4.3v-7.6c0-0.3,0-0.3,1.3-0.3v8.1
		c0,2.2,0.4,3,2.3,3c0.5,0,1.5-0.1,2.2-0.6V42.1c0-0.3,0-0.3,1.3-0.3V53.2z"/>
	<path fill="#82D3F5" d="M44.3,43h-1.8c0-1.1,0-1.2,0.3-1.2h1.5V38c0-0.5,0.2-0.5,1.3-0.5v4.3h2.9c0,1.1,0,1.2-0.3,1.2h-2.6v7.4
		c0,1.4,0,2.5,1.1,2.5c0.7,0,1-0.1,1.6-0.4c0,0.2,0.1,0.4,0.1,0.7c0,0.6-1,0.9-1.9,0.9c-2,0-2.1-1.5-2.1-3.7V43z"/>
	<path fill="#82D3F5" d="M61.1,42.8c0,0.2-0.1,0.5-0.3,0.7c-0.8-0.5-1.6-0.8-2.6-0.8c-1.5,0-2.5,0.6-2.5,1.6c0,0.6,0.2,1,1.2,1.7
		l2.6,1.8c1.1,0.9,1.6,1.8,1.6,3c0,2.1-1.5,3.2-3.9,3.2c-1.8,0-3-0.5-3-1c0-0.3,0.1-0.5,0.3-0.8c0.7,0.4,1.5,0.6,2.6,0.6
		c1.6,0,2.6-0.6,2.6-1.8c0-0.9-0.4-1.6-1.3-2.3l-2.5-1.8c-1.3-0.9-1.6-1.7-1.6-2.5c0-1.7,1.5-2.7,3.9-2.7
		C60.3,41.6,61.1,42.4,61.1,42.8z"/>
	<path fill="#82D3F5" d="M64.1,36.7c0.6,0,0.7,0.3,0.7,1.1c0,0.7-0.3,1.1-0.8,1.1c-0.5,0-0.7-0.3-0.7-1.1
		C63.3,37.1,63.6,36.7,64.1,36.7z M64.7,53.5c0,0.3,0,0.3-1.4,0.3V42.5c0-0.6,0.3-0.6,1.4-0.6V53.5z"/>
	<path fill="#82D3F5" d="M72.3,41.7h3c0,0.1,0.1,0.3,0.1,0.6c0,0.4-0.2,0.5-0.6,0.5c-0.4,0-0.8,0-1.3-0.1c0.8,0.5,1.3,1.5,1.3,3
		c0,2.5-1.1,4.4-3.9,4.4c-0.5,0-1,0-1.4-0.2c-0.5,0.4-1,1-1,1.4c0,0.5,1.5,0.7,3.5,1c1.8,0.2,3.2,0.7,3.2,2.6c0,1.8-1.5,3.6-4.7,3.6
		s-3.8-1.3-3.8-2.5c0-1.2,0.9-2.3,2-3c-1-0.3-1.6-0.7-1.6-1.3c0-0.6,0.7-1.5,1.5-2.1c-1.2-0.7-1.5-2.1-1.5-3.7c0-3,1.7-4.3,4-4.3
		C71.5,41.6,71.9,41.6,72.3,41.7z M70,53.2c-0.9,0.6-1.7,1.6-1.7,2.5c0,0.9,0.4,1.6,2.6,1.6s3.2-1.2,3.2-2.2c0-1.3-1-1.6-2.7-1.8
		C70.8,53.3,70.4,53.3,70,53.2z M68.7,45.9c0,1.8,0.3,3.1,2.5,3.1c1.7,0,2.5-1.6,2.5-3.6c0-2-0.9-2.8-2.4-2.8
		C69.8,42.6,68.7,43.6,68.7,45.9z"/>
	<path fill="#82D3F5" d="M77.1,42.4c1.1-0.5,2.5-0.8,3.9-0.8c2.6,0,3.3,1,3.3,3.3v8.6c0,0.3,0,0.3-1.3,0.3v-8.6c0-1.7-0.3-2.5-2-2.5
		c-0.7,0-1.8,0.2-2.5,0.6v10.2c0,0.3,0,0.3-1.3,0.3V42.4z"/>
	<path fill="#82D3F5" d="M86.5,42.2c0.5-0.3,2-0.6,3.8-0.6c1.9,0,2.9,0.7,2.9,2.9v1.4c0,2.7,0,5.4-0.1,7.3c-0.6,0.3-1.6,0.9-3.3,0.9
		c-1.7,0-3.5-0.3-3.5-3.6c0-3.4,1.8-3.9,3.6-3.9c0.6,0,1.4,0.1,2,0.3v-2.1c0-1.6-0.8-1.9-1.9-1.9c-1.5,0-2.8,0.3-3.5,0.6
		c-0.1-0.3-0.2-0.6-0.2-0.8C86.3,42.5,86.3,42.3,86.5,42.2z M90.2,47.6c-1.4,0-2.6,0.3-2.6,2.8c0,2.3,1.1,2.5,2.3,2.5
		c0.8,0,1.5-0.3,1.8-0.5c0.1-1,0.1-3,0.1-4.5C91.4,47.7,90.7,47.6,90.2,47.6z"/>
	<path fill="#82D3F5" d="M96.9,53.5c0,0.3,0,0.3-1.3,0.3v-17c0-0.6,0.3-0.6,1.3-0.6V53.5z"/>
</g>
<g>
	<g>
		<line fill="none" stroke="#82D3F5" stroke-miterlimit="10" x1="307.7" y1="27.2" x2="359.7" y2="27.2"/>
		<g>
			<path fill="#82D3F5" d="M352.6,32c-0.1-0.2-0.1-0.5,0.2-0.7l6.5-4.1l-6.5-4.1c-0.2-0.1-0.3-0.5-0.2-0.7s0.5-0.3,0.7-0.2l7.1,4.5
				c0.1,0.1,0.2,0.3,0.2,0.4s-0.1,0.3-0.2,0.4l-7.1,4.5c-0.1,0.1-0.2,0.1-0.3,0.1C352.9,32.2,352.7,32.1,352.6,32z"/>
		</g>
	</g>
</g>
<g>
	<g>
		<line fill="none" stroke="#82D3F5" stroke-miterlimit="10" x1="307.7" y1="65.2" x2="359.7" y2="65.2"/>
		<g>
			<path fill="#82D3F5" d="M352.6,70c-0.1-0.2-0.1-0.5,0.2-0.7l6.5-4.1l-6.5-4.1c-0.2-0.1-0.3-0.5-0.2-0.7s0.5-0.3,0.7-0.2l7.1,4.5
				c0.1,0.1,0.2,0.3,0.2,0.4s-0.1,0.3-0.2,0.4l-7.1,4.5c-0.1,0.1-0.2,0.1-0.3,0.1C352.9,70.2,352.7,70.1,352.6,70z"/>
		</g>
	</g>
</g>
<g>
	<g>
		<line fill="none" stroke="#82D3F5" stroke-miterlimit="10" x1="108.7" y1="46.2" x2="156.7" y2="46.2"/>
		<g>
			<path fill="#82D3F5" d="M149.6,51c-0.1-0.2-0.1-0.5,0.2-0.7l6.5-4.1l-6.5-4.1c-0.2-0.1-0.3-0.5-0.2-0.7s0.5-0.3,0.7-0.2l7.1,4.5
				c0.1,0.1,0.2,0.3,0.2,0.4s-0.1,0.3-0.2,0.4l-7.1,4.5c-0.1,0.1-0.2,0.1-0.3,0.1C149.9,51.2,149.7,51.1,149.6,51z"/>
		</g>
	</g>
</g>
<g>
	<rect x="164.1" y="16.7" width="139.3" height="59.3"/>
	<g>
		<rect x="175.7" y="26" fill="none" width="114.3" height="52.7"/>
		<path fill="#FFFFFF" d="M196.7,26.6c0-0.6,0.3-0.6,1.3-0.6v6.4c0.7-0.6,1.6-1,3-1c1.9,0,3.1,1.2,3.1,4.6c0,7-2.7,7.9-4.7,7.9
			c-1.2,0-2.2-0.3-2.8-0.7V26.6z M198,42.2c0.2,0.2,0.7,0.4,1.6,0.4c1.2,0,3.1-0.7,3.1-6.3c0-2.9-0.7-3.7-2.3-3.7
			c-0.9,0-1.7,0.3-2.4,0.9V42.2z"/>
		<path fill="#FFFFFF" d="M207.6,43.3c0,0.3,0,0.3-1.3,0.3v-17c0-0.6,0.3-0.6,1.3-0.6V43.3z"/>
		<path fill="#FFFFFF" d="M210.1,32c0.5-0.3,2-0.6,3.8-0.6c1.9,0,2.9,0.7,2.9,2.9v1.4c0,2.7,0,5.4-0.1,7.3c-0.6,0.3-1.6,0.9-3.3,0.9
			c-1.7,0-3.5-0.3-3.5-3.6c0-3.4,1.8-3.9,3.6-3.9c0.6,0,1.4,0.1,2,0.3v-2.1c0-1.6-0.8-1.9-1.9-1.9c-1.5,0-2.8,0.3-3.5,0.6
			c-0.1-0.3-0.2-0.6-0.2-0.8C209.9,32.3,209.9,32.1,210.1,32z M213.8,37.4c-1.4,0-2.6,0.3-2.6,2.8c0,2.3,1.1,2.5,2.3,2.5
			c0.8,0,1.5-0.3,1.8-0.5c0.1-1,0.1-3,0.1-4.5C215,37.5,214.3,37.4,213.8,37.4z"/>
		<path fill="#FFFFFF" d="M224.9,33.2c-0.4-0.3-1.1-0.6-1.9-0.6c-1.3,0-3,0.6-3,5.4c0,3.9,1,4.7,2.6,4.7c1,0,1.8-0.4,2.2-0.7
			c0.1,0.3,0.2,0.5,0.2,0.8c0,0.5-1.1,1.2-2.7,1.2c-2.2,0-3.6-0.8-3.6-6c0-5.8,2.4-6.5,4.3-6.5c1.1,0,2,0.4,2,1
			C225.1,32.6,225.1,32.9,224.9,33.2z"/>
		<path fill="#FFFFFF" d="M227.1,26.6c0-0.6,0.3-0.6,1.3-0.6v6.9c1-1,2.4-1.5,3.4-1.5c1.6,0,2.1,0.8,2.1,2.1c0,2.2-1.9,3.4-2.5,3.8
			c1.1,0.2,2.6,1.2,2.9,3.6c0,0.3,0.1,0.7,0.1,1.1c0,0.4,0,0.8-0.1,1.3c0,0.3,0,0.3-1.5,0.3c0.1-0.6,0.1-1,0.1-1.5
			c0-0.7-0.1-1.4-0.2-1.9c-0.6-2-2-2.4-2.9-2.1c-0.5,0.1-1.4,0.5-1.4,0.5v4.7c0,0.3,0,0.3-1.3,0.3V26.6z M231.3,32.6
			c-0.9,0-1.9,0.4-2.8,1.5v3.5c2.3-0.8,4.1-1.9,4.1-3.8C232.5,33,232.1,32.6,231.3,32.6z"/>
		<path fill="#FFFFFF" d="M235.7,37.5c0-0.9,0-1.2,0.3-1.2h4.6c0,0.9,0,1.2-0.3,1.2H235.7z"/>
		<path fill="#FFFFFF" d="M243,26.6c0-0.6,0.3-0.6,1.3-0.6v6.4c0.7-0.6,1.6-1,3-1c1.9,0,3.1,1.2,3.1,4.6c0,7-2.7,7.9-4.7,7.9
			c-1.2,0-2.2-0.3-2.8-0.7V26.6z M244.4,42.2c0.2,0.2,0.7,0.4,1.6,0.4c1.2,0,3.1-0.7,3.1-6.3c0-2.9-0.7-3.7-2.3-3.7
			c-0.9,0-1.7,0.3-2.4,0.9V42.2z"/>
		<path fill="#FFFFFF" d="M256,31.4c2.5,0,3.7,1.3,3.7,6.2c0,4.3-1.4,6.2-4,6.2c-2.3,0-3.7-0.8-3.7-6.2
			C252,33.2,253.5,31.4,256,31.4z M255.8,42.7c1.5,0,2.5-1.4,2.5-5.1c0-4.2-0.8-5-2.4-5c-1.5,0-2.5,1.2-2.5,5.2
			C253.4,41.9,254.3,42.7,255.8,42.7z"/>
		<path fill="#FFFFFF" d="M265.9,37.3l3.7,6c0.2,0.3,0.2,0.3-1.4,0.3l-1.2-1.9c-0.8-1.2-1.7-2.8-2-3.5c-0.3,0.6-1.2,2.2-2,3.5
			l-1.1,1.6c-0.1,0.3-0.3,0.3-1.6,0.3l3.9-6.3l-3.3-5.5c-0.1-0.2-0.1-0.2,1.4-0.2l1.2,1.9c0.6,1,1.4,2.4,1.6,2.9
			c0.3-0.5,1-1.8,1.7-2.9l1.1-1.6c0.1-0.2,0.1-0.2,1.5-0.2L265.9,37.3z"/>
		<path fill="#FFFFFF" d="M197.3,54.2c-0.4-0.3-1.1-0.6-1.9-0.6c-1.3,0-3,0.6-3,5.4c0,3.9,1,4.7,2.6,4.7c1,0,1.8-0.4,2.2-0.7
			c0.1,0.3,0.2,0.5,0.2,0.8c0,0.5-1.1,1.2-2.7,1.2c-2.2,0-3.6-0.8-3.6-6c0-5.8,2.4-6.5,4.3-6.5c1.1,0,2,0.4,2,1
			C197.4,53.6,197.4,53.9,197.3,54.2z"/>
		<path fill="#FFFFFF" d="M202.6,52.4c2.5,0,3.7,1.3,3.7,6.2c0,4.3-1.4,6.2-4,6.2c-2.3,0-3.7-0.8-3.7-6.2
			C198.6,54.2,200.1,52.4,202.6,52.4z M202.4,63.7c1.5,0,2.5-1.4,2.5-5.1c0-4.2-0.8-5-2.4-5c-1.5,0-2.5,1.2-2.5,5.2
			C200,62.9,200.9,63.7,202.4,63.7z"/>
		<path fill="#FFFFFF" d="M213.6,55.3c0-1.1-0.3-1.7-1.6-1.7c-0.7,0-1.4,0.1-2.2,0.5v10.2c0,0.3-0.1,0.3-1.3,0.3V53.2
			c1.2-0.5,2.4-0.8,3.6-0.8s1.9,0.3,2.3,0.9c0.9-0.6,2-0.9,3-0.9c2.4,0,2.7,1.2,2.7,3.5v8.4c0,0.3,0,0.3-1.3,0.3v-8.8
			c0-1.6-0.2-2.2-1.6-2.2c-0.7,0-1.4,0.1-2.2,0.6v10.1c0,0.1,0,0.2-0.1,0.3h0c-0.1,0-0.5,0-1.2,0V55.3z"/>
		<path fill="#FFFFFF" d="M222.6,53.4c1-0.6,2.2-1,3.5-1c2.4,0,4,1.1,4,5.1c0,6.5-2.4,7.4-3.9,7.4c-1,0-1.8-0.4-2.2-0.9v5.3
			c-0.2,0-0.5,0.1-0.7,0.1c-0.4,0-0.6-0.1-0.6-0.6V53.4z M224,62.6c0.4,0.7,1.1,1.1,1.8,1.1c1,0,2.9-0.6,2.9-6
			c0-3.3-0.9-4.2-2.6-4.2c-0.8,0-1.5,0.2-2.1,0.6V62.6z"/>
		<path fill="#FFFFFF" d="M235.6,52.4c2.5,0,3.7,1.3,3.7,6.2c0,4.3-1.4,6.2-4,6.2c-2.3,0-3.7-0.8-3.7-6.2
			C231.6,54.2,233.1,52.4,235.6,52.4z M235.4,63.7c1.5,0,2.5-1.4,2.5-5.1c0-4.2-0.8-5-2.4-5c-1.5,0-2.5,1.2-2.5,5.2
			C233,62.9,233.9,63.7,235.4,63.7z"/>
		<path fill="#FFFFFF" d="M241.4,53.2c1.1-0.5,2.5-0.8,3.9-0.8c2.6,0,3.3,1,3.3,3.3v8.6c0,0.3,0,0.3-1.3,0.3V56c0-1.7-0.3-2.5-2-2.5
			c-0.7,0-1.8,0.2-2.5,0.6v10.2c0,0.3,0,0.3-1.3,0.3V53.2z"/>
		<path fill="#FFFFFF" d="M257.9,56.2c0,1-0.1,2.1-0.2,2.9c-2,0.4-4.7,0.4-5.7,0.4c0,3.5,1.1,4.1,2.8,4.1c1.1,0,2.1-0.3,2.9-0.8
			c0.1,0.3,0.2,0.7,0.2,0.9c0,0.6-1.5,1.2-3.3,1.2c-2.3,0-3.9-0.8-3.9-5.6c0-6.2,2.3-6.9,4.3-6.9C257,52.4,257.9,53.8,257.9,56.2z
			 M252,58.4c1,0,3.2,0,4.6-0.3c0.1-0.6,0.1-1.1,0.1-1.6c0-1.9-0.4-2.9-1.8-2.9C253.5,53.6,252.1,54.2,252,58.4z"/>
		<path fill="#FFFFFF" d="M260,53.2c1.1-0.5,2.5-0.8,3.9-0.8c2.6,0,3.3,1,3.3,3.3v8.6c0,0.3,0,0.3-1.3,0.3V56c0-1.7-0.3-2.5-2-2.5
			c-0.7,0-1.8,0.2-2.5,0.6v10.2c0,0.3,0,0.3-1.3,0.3V53.2z"/>
		<path fill="#FFFFFF" d="M270.7,53.8H269c0-1.1,0-1.2,0.3-1.2h1.5v-3.8c0-0.5,0.2-0.5,1.3-0.5v4.3h2.9c0,1.1,0,1.2-0.3,1.2H272v7.4
			c0,1.4,0,2.5,1.1,2.5c0.7,0,1-0.1,1.6-0.4c0,0.2,0.1,0.4,0.1,0.7c0,0.6-1,0.9-1.9,0.9c-2,0-2.1-1.5-2.1-3.7V53.8z"/>
	</g>
	<rect x="156.7" y="38.1" width="8.5" height="16"/>
	<rect x="302.7" y="20.1" width="8.5" height="16"/>
	<rect x="302.7" y="57.1" width="8.5" height="16"/>
</g>
<g>
</g>
<g>
</g>
<g>
</g>
<g>
</g>
<g>
</g>
<g>
</g>
<g>
</g>
<g>
</g>
<g>
</g>
<g>
</g>
<g>
</g>
<g>
</g>
<g>
</g>
<g>
</g>
<g>
</g>
<g>
</g>
</svg>
