<?xml version="1.0" encoding="utf-8"?>
<!-- Generator: Adobe Illustrator 18.1.1, SVG Export Plug-In . SVG Version: 6.00 Build 0)  -->
<svg version="1.1" id="Ebene_1" xmlns="http://www.w3.org/2000/svg" xmlns:xlink="http://www.w3.org/1999/xlink" x="0px" y="0px"
	 viewBox="0 0 482.2 93.5" enable-background="new 0 0 482.2 93.5" xml:space="preserve">
<g>
	<rect x="8.7" y="55.2" fill="none" width="98.3" height="31.2"/>
	<path fill="#82D3F5" d="M10,56.7c0-0.7,0-0.7,1.3-0.7v16.5c0,0.3,0,0.3-1.3,0.3V56.7z"/>
	<path fill="#82D3F5" d="M14,61.4c1.1-0.5,2.5-0.8,3.9-0.8c2.6,0,3.3,1,3.3,3.3v8.6c0,0.3,0,0.3-1.3,0.3v-8.6c0-1.7-0.3-2.5-2-2.5
		c-0.7,0-1.8,0.2-2.5,0.6v10.2c0,0.3,0,0.3-1.3,0.3V61.4z"/>
	<path fill="#82D3F5" d="M23.7,61.5c1-0.6,2.2-1,3.5-1c2.4,0,4,1.1,4,5.1c0,6.5-2.4,7.4-3.9,7.4c-1,0-1.8-0.4-2.2-0.9v5.3
		c-0.2,0-0.5,0.1-0.7,0.1c-0.4,0-0.6-0.1-0.6-0.6V61.5z M25,70.8c0.4,0.7,1.1,1.1,1.8,1.1c1,0,2.9-0.6,2.9-6c0-3.3-0.9-4.2-2.6-4.2
		c-0.8,0-1.5,0.2-2.1,0.6V70.8z"/>
	<path fill="#82D3F5" d="M40.5,72.2c-1.1,0.6-2.4,0.8-3.6,0.8c-2.8,0-3.5-1.2-3.5-4.3v-7.6c0-0.3,0-0.3,1.3-0.3v8.1
		c0,2.2,0.4,3,2.3,3c0.5,0,1.5-0.1,2.2-0.6V61.1c0-0.3,0-0.3,1.3-0.3V72.2z"/>
	<path fill="#82D3F5" d="M44.3,62h-1.8c0-1.1,0-1.2,0.3-1.2h1.5V57c0-0.5,0.2-0.5,1.3-0.5v4.3h2.9c0,1.1,0,1.2-0.3,1.2h-2.6v7.4
		c0,1.4,0,2.5,1.1,2.5c0.7,0,1-0.1,1.6-0.4c0,0.2,0.1,0.4,0.1,0.7c0,0.6-1,0.9-1.9,0.9c-2,0-2.1-1.5-2.1-3.7V62z"/>
	<path fill="#82D3F5" d="M61.1,61.8c0,0.2-0.1,0.5-0.3,0.7c-0.8-0.5-1.6-0.8-2.6-0.8c-1.5,0-2.5,0.6-2.5,1.6c0,0.6,0.2,1,1.2,1.7
		l2.6,1.8c1.1,0.9,1.6,1.8,1.6,3c0,2.1-1.5,3.2-3.9,3.2c-1.8,0-3-0.5-3-1c0-0.3,0.1-0.5,0.3-0.8c0.7,0.4,1.5,0.6,2.6,0.6
		c1.6,0,2.6-0.6,2.6-1.8c0-0.9-0.4-1.6-1.3-2.3l-2.5-1.8c-1.3-0.9-1.6-1.7-1.6-2.5c0-1.7,1.5-2.7,3.9-2.7
		C60.3,60.6,61.1,61.4,61.1,61.8z"/>
	<path fill="#82D3F5" d="M64.1,55.7c0.6,0,0.7,0.3,0.7,1.1c0,0.7-0.3,1.1-0.8,1.1c-0.5,0-0.7-0.3-0.7-1.1
		C63.3,56.1,63.6,55.7,64.1,55.7z M64.7,72.5c0,0.3,0,0.3-1.4,0.3V61.5c0-0.6,0.3-0.6,1.4-0.6V72.5z"/>
	<path fill="#82D3F5" d="M72.3,60.7h3c0,0.1,0.1,0.3,0.1,0.6c0,0.4-0.2,0.5-0.6,0.5c-0.4,0-0.8,0-1.3-0.1c0.8,0.5,1.3,1.5,1.3,3
		c0,2.5-1.1,4.4-3.9,4.4c-0.5,0-1,0-1.4-0.2c-0.5,0.4-1,1-1,1.4c0,0.5,1.5,0.7,3.5,1c1.8,0.2,3.2,0.7,3.2,2.6c0,1.8-1.5,3.6-4.7,3.6
		s-3.8-1.3-3.8-2.5c0-1.2,0.9-2.3,2-3c-1-0.3-1.6-0.7-1.6-1.3c0-0.6,0.7-1.5,1.5-2.1c-1.2-0.7-1.5-2.1-1.5-3.7c0-3,1.7-4.3,4-4.3
		C71.5,60.6,71.9,60.6,72.3,60.7z M70,72.2c-0.9,0.6-1.7,1.6-1.7,2.5c0,0.9,0.4,1.6,2.6,1.6s3.2-1.2,3.2-2.2c0-1.3-1-1.6-2.7-1.8
		C70.8,72.3,70.4,72.3,70,72.2z M68.7,64.9c0,1.8,0.3,3.1,2.5,3.1c1.7,0,2.5-1.6,2.5-3.6c0-2-0.9-2.8-2.4-2.8
		C69.8,61.6,68.7,62.6,68.7,64.9z"/>
	<path fill="#82D3F5" d="M78,70.8c0.7,0,1.1,0.5,1.1,1.1c0,0.6-0.4,1.1-1.1,1.1c-0.7,0-1-0.4-1-1.1C77,71.3,77.3,70.8,78,70.8z"/>
	<path fill="#82D3F5" d="M91.8,68l-0.1,1.9c0,0.3-0.3,0.3-1.2,0.3l0.1-2.2h-2.7l-0.1,1.9c0,0.3-0.3,0.3-1.2,0.3l0.1-2.2h-1.5
		c0-0.9,0-1.1,0.3-1.1h1.3l0.2-3h-1.8c0-0.9,0-1.1,0.3-1.1h1.5l0.1-1.7c0-0.3,0.3-0.3,1.2-0.3l-0.1,2h2.7l0.1-1.7
		c0-0.3,0.3-0.3,1.2-0.3l-0.1,2h1.7c0,0.9,0,1.1-0.3,1.1H92l-0.2,3h1.9c0,0.9,0,1.1-0.3,1.1H91.8z M87.9,66.9h2.7l0.2-3h-2.7
		L87.9,66.9z"/>
	<path fill="#82D3F5" d="M96,59.6c0-0.4,1.7-1.2,4.2-1.2c2.8,0,3.5,1.1,3.5,3.1c0,3.7-4,6.3-6.4,10h4.4c0.7,0,2.4-0.1,2.4-0.1
		c0,0.8,0,1.3-0.2,1.3h-8.3c0-0.1-0.1-0.3-0.1-0.5c0-0.5,0.2-0.6,0.6-1.3c2.2-3.5,6.1-6,6.1-9.3c0-1.2-0.4-2-2.2-2
		c-1.7,0-3,0.4-3.8,0.9C96,60.3,96,59.9,96,59.6z"/>
</g>
<g>
	<rect x="8.7" y="18.1" fill="none" width="98.3" height="31.2"/>
	<path fill="#82D3F5" d="M10,19.6c0-0.7,0-0.7,1.3-0.7v16.5c0,0.3,0,0.3-1.3,0.3V19.6z"/>
	<path fill="#82D3F5" d="M14,24.3c1.1-0.5,2.5-0.8,3.9-0.8c2.6,0,3.3,1,3.3,3.3v8.6c0,0.3,0,0.3-1.3,0.3v-8.6c0-1.7-0.3-2.5-2-2.5
		c-0.7,0-1.8,0.2-2.5,0.6v10.2c0,0.3,0,0.3-1.3,0.3V24.3z"/>
	<path fill="#82D3F5" d="M23.7,24.4c1-0.6,2.2-1,3.5-1c2.4,0,4,1.1,4,5.1c0,6.5-2.4,7.4-3.9,7.4c-1,0-1.8-0.4-2.2-0.9v5.3
		c-0.2,0-0.5,0.1-0.7,0.1c-0.4,0-0.6-0.1-0.6-0.6V24.4z M25,33.6c0.4,0.7,1.1,1.1,1.8,1.1c1,0,2.9-0.6,2.9-6c0-3.3-0.9-4.2-2.6-4.2
		c-0.8,0-1.5,0.2-2.1,0.6V33.6z"/>
	<path fill="#82D3F5" d="M40.5,35.1c-1.1,0.6-2.4,0.8-3.6,0.8c-2.8,0-3.5-1.2-3.5-4.3V24c0-0.3,0-0.3,1.3-0.3v8.1c0,2.2,0.4,3,2.3,3
		c0.5,0,1.5-0.1,2.2-0.6V24c0-0.3,0-0.3,1.3-0.3V35.1z"/>
	<path fill="#82D3F5" d="M44.3,24.9h-1.8c0-1.1,0-1.2,0.3-1.2h1.5v-3.8c0-0.5,0.2-0.5,1.3-0.5v4.3h2.9c0,1.1,0,1.2-0.3,1.2h-2.6v7.4
		c0,1.4,0,2.5,1.1,2.5c0.7,0,1-0.1,1.6-0.4c0,0.2,0.1,0.4,0.1,0.7c0,0.6-1,0.9-1.9,0.9c-2,0-2.1-1.5-2.1-3.7V24.9z"/>
	<path fill="#82D3F5" d="M61.1,24.7c0,0.2-0.1,0.5-0.3,0.7c-0.8-0.5-1.6-0.8-2.6-0.8c-1.5,0-2.5,0.6-2.5,1.6c0,0.6,0.2,1,1.2,1.7
		l2.6,1.8c1.1,0.9,1.6,1.8,1.6,3c0,2.1-1.5,3.2-3.9,3.2c-1.8,0-3-0.5-3-1c0-0.3,0.1-0.5,0.3-0.8c0.7,0.4,1.5,0.6,2.6,0.6
		c1.6,0,2.6-0.6,2.6-1.8c0-0.9-0.4-1.6-1.3-2.3l-2.5-1.8c-1.3-0.9-1.6-1.7-1.6-2.5c0-1.7,1.5-2.7,3.9-2.7
		C60.3,23.5,61.1,24.3,61.1,24.7z"/>
	<path fill="#82D3F5" d="M64.1,18.5c0.6,0,0.7,0.3,0.7,1.1c0,0.7-0.3,1.1-0.8,1.1c-0.5,0-0.7-0.3-0.7-1.1
		C63.3,19,63.6,18.5,64.1,18.5z M64.7,35.4c0,0.3,0,0.3-1.4,0.3V24.4c0-0.6,0.3-0.6,1.4-0.6V35.4z"/>
	<path fill="#82D3F5" d="M72.3,23.6h3c0,0.1,0.1,0.3,0.1,0.6c0,0.4-0.2,0.5-0.6,0.5c-0.4,0-0.8,0-1.3-0.1c0.8,0.5,1.3,1.5,1.3,3
		c0,2.5-1.1,4.4-3.9,4.4c-0.5,0-1,0-1.4-0.2c-0.5,0.4-1,1-1,1.4c0,0.5,1.5,0.7,3.5,1c1.8,0.2,3.2,0.7,3.2,2.6c0,1.8-1.5,3.6-4.7,3.6
		s-3.8-1.3-3.8-2.5c0-1.2,0.9-2.3,2-3c-1-0.3-1.6-0.7-1.6-1.3c0-0.6,0.7-1.5,1.5-2.1c-1.2-0.7-1.5-2.1-1.5-3.7c0-3,1.7-4.3,4-4.3
		C71.5,23.5,71.9,23.5,72.3,23.6z M70,35.1c-0.9,0.6-1.7,1.6-1.7,2.5c0,0.9,0.4,1.6,2.6,1.6S74,38.1,74,37c0-1.3-1-1.6-2.7-1.8
		C70.8,35.2,70.4,35.2,70,35.1z M68.7,27.8c0,1.8,0.3,3.1,2.5,3.1c1.7,0,2.5-1.6,2.5-3.6c0-2-0.9-2.8-2.4-2.8
		C69.8,24.5,68.7,25.5,68.7,27.8z"/>
	<path fill="#82D3F5" d="M78,33.7c0.7,0,1.1,0.5,1.1,1.1c0,0.6-0.4,1.1-1.1,1.1c-0.7,0-1-0.4-1-1.1C77,34.2,77.3,33.7,78,33.7z"/>
	<path fill="#82D3F5" d="M91.8,30.9l-0.1,1.9c0,0.3-0.3,0.3-1.2,0.3l0.1-2.2h-2.7l-0.1,1.9c0,0.3-0.3,0.3-1.2,0.3l0.1-2.2h-1.5
		c0-0.9,0-1.1,0.3-1.1h1.3l0.2-3h-1.8c0-0.9,0-1.1,0.3-1.1h1.5L87,24c0-0.3,0.3-0.3,1.2-0.3l-0.1,2h2.7l0.1-1.7
		c0-0.3,0.3-0.3,1.2-0.3l-0.1,2h1.7c0,0.9,0,1.1-0.3,1.1H92l-0.2,3h1.9c0,0.9,0,1.1-0.3,1.1H91.8z M87.9,29.8h2.7l0.2-3h-2.7
		L87.9,29.8z"/>
	<path fill="#82D3F5" d="M96.3,22.3c0-0.2,3.8-1,4.3-1c0.1,0,0.3,0.1,0.4,0.1l-0.3,13.1h2.1c0.7,0,1.3-0.1,1.3-0.1
		c0,0.7,0,1.3-0.2,1.3h-8.4c0-0.2,0-0.8,0-1c0-0.2,3-0.3,3.8-0.3l0.3-11.8c-0.5,0-3.1,0.6-3.1,0.6C96.3,23.1,96.3,22.6,96.3,22.3z"
		/>
</g>
<g>
	<rect x="366.7" y="36.2" fill="none" width="111.9" height="31.2"/>
	<path fill="#82D3F5" d="M372.2,36.8c3.1,0,4.3,2.1,4.3,8.5c0,6.5-1.4,8.8-4.5,8.8c-3.1,0-4.3-2-4.3-8.8
		C367.6,39.1,369.1,36.8,372.2,36.8z M372,52.7c2.2,0,3.1-2,3.1-7.4c0-5.3-0.8-7.1-2.9-7.1c-2.1,0-3.1,2-3.1,7.6
		C369.1,50.8,369.9,52.7,372,52.7z"/>
	<path fill="#82D3F5" d="M386,53.2c-1.1,0.6-2.4,0.8-3.6,0.8c-2.8,0-3.5-1.2-3.5-4.3v-7.6c0-0.3,0-0.3,1.3-0.3v8.1
		c0,2.2,0.4,3,2.3,3c0.5,0,1.5-0.1,2.2-0.6V42.1c0-0.3,0-0.3,1.3-0.3V53.2z"/>
	<path fill="#82D3F5" d="M389.8,43h-1.8c0-1.1,0-1.2,0.3-1.2h1.5V38c0-0.5,0.2-0.5,1.3-0.5v4.3h2.9c0,1.1,0,1.2-0.3,1.2h-2.6v7.4
		c0,1.4,0,2.5,1.1,2.5c0.7,0,1-0.1,1.6-0.4c0,0.2,0.1,0.4,0.1,0.7c0,0.6-1,0.9-1.9,0.9c-2,0-2.1-1.5-2.1-3.7V43z"/>
	<path fill="#82D3F5" d="M395.9,42.5c1-0.6,2.2-1,3.5-1c2.4,0,4,1.1,4,5.1c0,6.5-2.4,7.4-3.9,7.4c-1,0-1.8-0.4-2.2-0.9v5.3
		c-0.2,0-0.5,0.1-0.7,0.1c-0.4,0-0.6-0.1-0.6-0.6V42.5z M397.3,51.8c0.4,0.7,1.1,1.1,1.8,1.1c1,0,2.9-0.6,2.9-6
		c0-3.3-0.9-4.2-2.6-4.2c-0.8,0-1.5,0.2-2.1,0.6V51.8z"/>
	<path fill="#82D3F5" d="M412.7,53.2c-1.1,0.6-2.4,0.8-3.6,0.8c-2.8,0-3.5-1.2-3.5-4.3v-7.6c0-0.3,0-0.3,1.3-0.3v8.1
		c0,2.2,0.4,3,2.3,3c0.5,0,1.5-0.1,2.2-0.6V42.1c0-0.3,0-0.3,1.3-0.3V53.2z"/>
	<path fill="#82D3F5" d="M416.6,43h-1.8c0-1.1,0-1.2,0.3-1.2h1.5V38c0-0.5,0.2-0.5,1.3-0.5v4.3h2.9c0,1.1,0,1.2-0.3,1.2h-2.6v7.4
		c0,1.4,0,2.5,1.1,2.5c0.7,0,1-0.1,1.6-0.4c0,0.2,0.1,0.4,0.1,0.7c0,0.6-1,0.9-1.9,0.9c-2,0-2.1-1.5-2.1-3.7V43z"/>
	<path fill="#82D3F5" d="M433.4,42.8c0,0.2-0.1,0.5-0.3,0.7c-0.8-0.5-1.6-0.8-2.6-0.8c-1.5,0-2.5,0.6-2.5,1.6c0,0.6,0.2,1,1.2,1.7
		l2.6,1.8c1.1,0.9,1.6,1.8,1.6,3c0,2.1-1.5,3.2-3.9,3.2c-1.8,0-3-0.5-3-1c0-0.3,0.1-0.5,0.3-0.8c0.7,0.4,1.5,0.6,2.6,0.6
		c1.6,0,2.6-0.6,2.6-1.8c0-0.9-0.4-1.6-1.3-2.3l-2.5-1.8c-1.3-0.9-1.6-1.7-1.6-2.5c0-1.7,1.5-2.7,3.9-2.7
		C432.6,41.6,433.4,42.4,433.4,42.8z"/>
	<path fill="#82D3F5" d="M436.4,36.7c0.6,0,0.7,0.3,0.7,1.1c0,0.7-0.3,1.1-0.8,1.1c-0.5,0-0.7-0.3-0.7-1.1
		C435.6,37.1,435.8,36.7,436.4,36.7z M437,53.5c0,0.3,0,0.3-1.4,0.3V42.5c0-0.6,0.3-0.6,1.4-0.6V53.5z"/>
	<path fill="#82D3F5" d="M444.6,41.7h3c0,0.1,0.1,0.3,0.1,0.6c0,0.4-0.2,0.5-0.6,0.5c-0.4,0-0.8,0-1.3-0.1c0.8,0.5,1.3,1.5,1.3,3
		c0,2.5-1.1,4.4-3.9,4.4c-0.5,0-1,0-1.4-0.2c-0.5,0.4-1,1-1,1.4c0,0.5,1.5,0.7,3.5,1c1.8,0.2,3.2,0.7,3.2,2.6c0,1.8-1.5,3.6-4.7,3.6
		s-3.8-1.3-3.8-2.5c0-1.2,0.9-2.3,2-3c-1-0.3-1.6-0.7-1.6-1.3c0-0.6,0.7-1.5,1.5-2.1c-1.2-0.7-1.5-2.1-1.5-3.7c0-3,1.7-4.3,4-4.3
		C443.7,41.6,444.2,41.6,444.6,41.7z M442.2,53.2c-0.9,0.6-1.7,1.6-1.7,2.5c0,0.9,0.4,1.6,2.6,1.6s3.2-1.2,3.2-2.2
		c0-1.3-1-1.6-2.7-1.8C443.1,53.3,442.6,53.3,442.2,53.2z M440.9,45.9c0,1.8,0.3,3.1,2.5,3.1c1.7,0,2.5-1.6,2.5-3.6
		c0-2-0.9-2.8-2.4-2.8C442.1,42.6,440.9,43.6,440.9,45.9z"/>
	<path fill="#82D3F5" d="M449.4,42.4c1.1-0.5,2.5-0.8,3.9-0.8c2.6,0,3.3,1,3.3,3.3v8.6c0,0.3,0,0.3-1.3,0.3v-8.6
		c0-1.7-0.3-2.5-2-2.5c-0.7,0-1.8,0.2-2.5,0.6v10.2c0,0.3,0,0.3-1.3,0.3V42.4z"/>
	<path fill="#82D3F5" d="M458.7,42.2c0.5-0.3,2-0.6,3.8-0.6c1.9,0,2.9,0.7,2.9,2.9v1.4c0,2.7,0,5.4-0.1,7.3
		c-0.6,0.3-1.6,0.9-3.3,0.9c-1.7,0-3.5-0.3-3.5-3.6c0-3.4,1.8-3.9,3.6-3.9c0.6,0,1.4,0.1,2,0.3v-2.1c0-1.6-0.8-1.9-1.9-1.9
		c-1.5,0-2.8,0.3-3.5,0.6c-0.1-0.3-0.2-0.6-0.2-0.8C458.5,42.5,458.6,42.3,458.7,42.2z M462.5,47.6c-1.4,0-2.6,0.3-2.6,2.8
		c0,2.3,1.1,2.5,2.3,2.5c0.8,0,1.5-0.3,1.8-0.5c0.1-1,0.1-3,0.1-4.5C463.6,47.7,463,47.6,462.5,47.6z"/>
	<path fill="#82D3F5" d="M469.2,53.5c0,0.3,0,0.3-1.3,0.3v-17c0-0.6,0.3-0.6,1.3-0.6V53.5z"/>
</g>
<g>
	<g>
		<line fill="none" stroke="#82D3F5" stroke-miterlimit="10" x1="106.7" y1="28.2" x2="154.7" y2="28.2"/>
		<g>
			<path fill="#82D3F5" d="M147.6,33c-0.1-0.2-0.1-0.5,0.2-0.7l6.5-4.1l-6.5-4.1c-0.2-0.1-0.3-0.5-0.2-0.7s0.5-0.3,0.7-0.2l7.1,4.5
				c0.1,0.1,0.2,0.3,0.2,0.4s-0.1,0.3-0.2,0.4l-7.1,4.5c-0.1,0.1-0.2,0.1-0.3,0.1C147.9,33.2,147.7,33.1,147.6,33z"/>
		</g>
	</g>
</g>
<g>
	<g>
		<line fill="none" stroke="#82D3F5" stroke-miterlimit="10" x1="106.7" y1="66.2" x2="154.7" y2="66.2"/>
		<g>
			<path fill="#82D3F5" d="M147.6,71c-0.1-0.2-0.1-0.5,0.2-0.7l6.5-4.1l-6.5-4.1c-0.2-0.1-0.3-0.5-0.2-0.7s0.5-0.3,0.7-0.2l7.1,4.5
				c0.1,0.1,0.2,0.3,0.2,0.4s-0.1,0.3-0.2,0.4l-7.1,4.5c-0.1,0.1-0.2,0.1-0.3,0.1C147.9,71.2,147.7,71.1,147.6,71z"/>
		</g>
	</g>
</g>
<g>
	<g>
		<line fill="none" stroke="#82D3F5" stroke-miterlimit="10" x1="306.7" y1="46.2" x2="359.7" y2="46.2"/>
		<g>
			<path fill="#82D3F5" d="M352.6,51c-0.1-0.2-0.1-0.5,0.2-0.7l6.5-4.1l-6.5-4.1c-0.2-0.1-0.3-0.5-0.2-0.7s0.5-0.3,0.7-0.2l7.1,4.5
				c0.1,0.1,0.2,0.3,0.2,0.4s-0.1,0.3-0.2,0.4l-7.1,4.5c-0.1,0.1-0.2,0.1-0.3,0.1C352.9,51.2,352.7,51.1,352.6,51z"/>
		</g>
	</g>
</g>
<g>
	<rect x="164.1" y="16.7" width="139.3" height="59.3"/>
	<g>
		<rect x="175.7" y="26" fill="none" width="114.3" height="52.7"/>
		<path fill="#FFFFFF" d="M196.7,26.6c0-0.6,0.3-0.6,1.3-0.6v6.4c0.7-0.6,1.6-1,3-1c1.9,0,3.1,1.2,3.1,4.6c0,7-2.7,7.9-4.7,7.9
			c-1.2,0-2.2-0.3-2.8-0.7V26.6z M198,42.2c0.2,0.2,0.7,0.4,1.6,0.4c1.2,0,3.1-0.7,3.1-6.3c0-2.9-0.7-3.7-2.3-3.7
			c-0.9,0-1.7,0.3-2.4,0.9V42.2z"/>
		<path fill="#FFFFFF" d="M207.6,43.3c0,0.3,0,0.3-1.3,0.3v-17c0-0.6,0.3-0.6,1.3-0.6V43.3z"/>
		<path fill="#FFFFFF" d="M210.1,32c0.5-0.3,2-0.6,3.8-0.6c1.9,0,2.9,0.7,2.9,2.9v1.4c0,2.7,0,5.4-0.1,7.3c-0.6,0.3-1.6,0.9-3.3,0.9
			c-1.7,0-3.5-0.3-3.5-3.6c0-3.4,1.8-3.9,3.6-3.9c0.6,0,1.4,0.1,2,0.3v-2.1c0-1.6-0.8-1.9-1.9-1.9c-1.5,0-2.8,0.3-3.5,0.6
			c-0.1-0.3-0.2-0.6-0.2-0.8C209.9,32.3,209.9,32.1,210.1,32z M213.8,37.4c-1.4,0-2.6,0.3-2.6,2.8c0,2.3,1.1,2.5,2.3,2.5
			c0.8,0,1.5-0.3,1.8-0.5c0.1-1,0.1-3,0.1-4.5C215,37.5,214.3,37.4,213.8,37.4z"/>
		<path fill="#FFFFFF" d="M224.9,33.2c-0.4-0.3-1.1-0.6-1.9-0.6c-1.3,0-3,0.6-3,5.4c0,3.9,1,4.7,2.6,4.7c1,0,1.8-0.4,2.2-0.7
			c0.1,0.3,0.2,0.5,0.2,0.8c0,0.5-1.1,1.2-2.7,1.2c-2.2,0-3.6-0.8-3.6-6c0-5.8,2.4-6.5,4.3-6.5c1.1,0,2,0.4,2,1
			C225.1,32.6,225.1,32.9,224.9,33.2z"/>
		<path fill="#FFFFFF" d="M227.1,26.6c0-0.6,0.3-0.6,1.3-0.6v6.9c1-1,2.4-1.5,3.4-1.5c1.6,0,2.1,0.8,2.1,2.1c0,2.2-1.9,3.4-2.5,3.8
			c1.1,0.2,2.6,1.2,2.9,3.6c0,0.3,0.1,0.7,0.1,1.1c0,0.4,0,0.8-0.1,1.3c0,0.3,0,0.3-1.5,0.3c0.1-0.6,0.1-1,0.1-1.5
			c0-0.7-0.1-1.4-0.2-1.9c-0.6-2-2-2.4-2.9-2.1c-0.5,0.1-1.4,0.5-1.4,0.5v4.7c0,0.3,0,0.3-1.3,0.3V26.6z M231.3,32.6
			c-0.9,0-1.9,0.4-2.8,1.5v3.5c2.3-0.8,4.1-1.9,4.1-3.8C232.5,33,232.1,32.6,231.3,32.6z"/>
		<path fill="#FFFFFF" d="M235.7,37.5c0-0.9,0-1.2,0.3-1.2h4.6c0,0.9,0,1.2-0.3,1.2H235.7z"/>
		<path fill="#FFFFFF" d="M243,26.6c0-0.6,0.3-0.6,1.3-0.6v6.4c0.7-0.6,1.6-1,3-1c1.9,0,3.1,1.2,3.1,4.6c0,7-2.7,7.9-4.7,7.9
			c-1.2,0-2.2-0.3-2.8-0.7V26.6z M244.4,42.2c0.2,0.2,0.7,0.4,1.6,0.4c1.2,0,3.1-0.7,3.1-6.3c0-2.9-0.7-3.7-2.3-3.7
			c-0.9,0-1.7,0.3-2.4,0.9V42.2z"/>
		<path fill="#FFFFFF" d="M256,31.4c2.5,0,3.7,1.3,3.7,6.2c0,4.3-1.4,6.2-4,6.2c-2.3,0-3.7-0.8-3.7-6.2
			C252,33.2,253.5,31.4,256,31.4z M255.8,42.7c1.5,0,2.5-1.4,2.5-5.1c0-4.2-0.8-5-2.4-5c-1.5,0-2.5,1.2-2.5,5.2
			C253.4,41.9,254.3,42.7,255.8,42.7z"/>
		<path fill="#FFFFFF" d="M265.9,37.3l3.7,6c0.2,0.3,0.2,0.3-1.4,0.3l-1.2-1.9c-0.8-1.2-1.7-2.8-2-3.5c-0.3,0.6-1.2,2.2-2,3.5
			l-1.1,1.6c-0.1,0.3-0.3,0.3-1.6,0.3l3.9-6.3l-3.3-5.5c-0.1-0.2-0.1-0.2,1.4-0.2l1.2,1.9c0.6,1,1.4,2.4,1.6,2.9
			c0.3-0.5,1-1.8,1.7-2.9l1.1-1.6c0.1-0.2,0.1-0.2,1.5-0.2L265.9,37.3z"/>
		<path fill="#FFFFFF" d="M197.3,54.2c-0.4-0.3-1.1-0.6-1.9-0.6c-1.3,0-3,0.6-3,5.4c0,3.9,1,4.7,2.6,4.7c1,0,1.8-0.4,2.2-0.7
			c0.1,0.3,0.2,0.5,0.2,0.8c0,0.5-1.1,1.2-2.7,1.2c-2.2,0-3.6-0.8-3.6-6c0-5.8,2.4-6.5,4.3-6.5c1.1,0,2,0.4,2,1
			C197.4,53.6,197.4,53.9,197.3,54.2z"/>
		<path fill="#FFFFFF" d="M202.6,52.4c2.5,0,3.7,1.3,3.7,6.2c0,4.3-1.4,6.2-4,6.2c-2.3,0-3.7-0.8-3.7-6.2
			C198.6,54.2,200.1,52.4,202.6,52.4z M202.4,63.7c1.5,0,2.5-1.4,2.5-5.1c0-4.2-0.8-5-2.4-5c-1.5,0-2.5,1.2-2.5,5.2
			C200,62.9,200.9,63.7,202.4,63.7z"/>
		<path fill="#FFFFFF" d="M213.6,55.3c0-1.1-0.3-1.7-1.6-1.7c-0.7,0-1.4,0.1-2.2,0.5v10.2c0,0.3-0.1,0.3-1.3,0.3V53.2
			c1.2-0.5,2.4-0.8,3.6-0.8s1.9,0.3,2.3,0.9c0.9-0.6,2-0.9,3-0.9c2.4,0,2.7,1.2,2.7,3.5v8.4c0,0.3,0,0.3-1.3,0.3v-8.8
			c0-1.6-0.2-2.2-1.6-2.2c-0.7,0-1.4,0.1-2.2,0.6v10.1c0,0.1,0,0.2-0.1,0.3h0c-0.1,0-0.5,0-1.2,0V55.3z"/>
		<path fill="#FFFFFF" d="M222.6,53.4c1-0.6,2.2-1,3.5-1c2.4,0,4,1.1,4,5.1c0,6.5-2.4,7.4-3.9,7.4c-1,0-1.8-0.4-2.2-0.9v5.3
			c-0.2,0-0.5,0.1-0.7,0.1c-0.4,0-0.6-0.1-0.6-0.6V53.4z M224,62.6c0.4,0.7,1.1,1.1,1.8,1.1c1,0,2.9-0.6,2.9-6
			c0-3.3-0.9-4.2-2.6-4.2c-0.8,0-1.5,0.2-2.1,0.6V62.6z"/>
		<path fill="#FFFFFF" d="M235.6,52.4c2.5,0,3.7,1.3,3.7,6.2c0,4.3-1.4,6.2-4,6.2c-2.3,0-3.7-0.8-3.7-6.2
			C231.6,54.2,233.1,52.4,235.6,52.4z M235.4,63.7c1.5,0,2.5-1.4,2.5-5.1c0-4.2-0.8-5-2.4-5c-1.5,0-2.5,1.2-2.5,5.2
			C233,62.9,233.9,63.7,235.4,63.7z"/>
		<path fill="#FFFFFF" d="M241.4,53.2c1.1-0.5,2.5-0.8,3.9-0.8c2.6,0,3.3,1,3.3,3.3v8.6c0,0.3,0,0.3-1.3,0.3V56c0-1.7-0.3-2.5-2-2.5
			c-0.7,0-1.8,0.2-2.5,0.6v10.2c0,0.3,0,0.3-1.3,0.3V53.2z"/>
		<path fill="#FFFFFF" d="M257.9,56.2c0,1-0.1,2.1-0.2,2.9c-2,0.4-4.7,0.4-5.7,0.4c0,3.5,1.1,4.1,2.8,4.1c1.1,0,2.1-0.3,2.9-0.8
			c0.1,0.3,0.2,0.7,0.2,0.9c0,0.6-1.5,1.2-3.3,1.2c-2.3,0-3.9-0.8-3.9-5.6c0-6.2,2.3-6.9,4.3-6.9C257,52.4,257.9,53.8,257.9,56.2z
			 M252,58.4c1,0,3.2,0,4.6-0.3c0.1-0.6,0.1-1.1,0.1-1.6c0-1.9-0.4-2.9-1.8-2.9C253.5,53.6,252.1,54.2,252,58.4z"/>
		<path fill="#FFFFFF" d="M260,53.2c1.1-0.5,2.5-0.8,3.9-0.8c2.6,0,3.3,1,3.3,3.3v8.6c0,0.3,0,0.3-1.3,0.3V56c0-1.7-0.3-2.5-2-2.5
			c-0.7,0-1.8,0.2-2.5,0.6v10.2c0,0.3,0,0.3-1.3,0.3V53.2z"/>
		<path fill="#FFFFFF" d="M270.7,53.8H269c0-1.1,0-1.2,0.3-1.2h1.5v-3.8c0-0.5,0.2-0.5,1.3-0.5v4.3h2.9c0,1.1,0,1.2-0.3,1.2H272v7.4
			c0,1.4,0,2.5,1.1,2.5c0.7,0,1-0.1,1.6-0.4c0,0.2,0.1,0.4,0.1,0.7c0,0.6-1,0.9-1.9,0.9c-2,0-2.1-1.5-2.1-3.7V53.8z"/>
	</g>
	<rect x="155.7" y="20.5" width="8.5" height="16"/>
	<rect x="155.7" y="57.5" width="8.5" height="16"/>
	<rect x="302.7" y="38.5" width="8.5" height="16"/>
</g>
<g>
</g>
<g>
</g>
<g>
</g>
<g>
</g>
<g>
</g>
<g>
</g>
<g>
</g>
<g>
</g>
<g>
</g>
<g>
</g>
<g>
</g>
<g>
</g>
<g>
</g>
<g>
</g>
<g>
</g>
<g>
</g>
</svg>
